<svg xmlns="http://www.w3.org/2000/svg" width="780" height="1388" viewBox="0 0 390 694"><path d="M180 130 L378 130 " fill="none" stroke="rgba(114,199,181,0.37254901960784315)" stroke-width="0.7" stroke-linecap="butt" stroke-linejoin="miter"/><path d="M332 230 L378 230 " fill="none" stroke="rgba(114,199,181,0.37254901960784315)" stroke-width="0.7" stroke-linecap="butt" stroke-linejoin="miter"/><path d="M332 330 L378 330 " fill="none" stroke="rgba(114,199,181,0.37254901960784315)" stroke-width="0.7" stroke-linecap="butt" stroke-linejoin="miter"/><path d="M324 430 L378 430 " fill="none" stroke="rgba(114,199,181,0.37254901960784315)" stroke-width="0.7" stroke-linecap="butt" stroke-linejoin="miter"/><path d="M12 530 L204 530 " fill="none" stroke="rgba(114,199,181,0.37254901960784315)" stroke-width="0.7" stroke-linecap="butt" stroke-linejoin="miter"/><path d="M90 86 L90 102 " fill="none" stroke="rgba(114,199,181,0.37254901960784315)" stroke-width="0.7" stroke-linecap="butt" stroke-linejoin="miter"/><path d="M90 510 L90 598 " fill="none" stroke="rgba(114,199,181,0.37254901960784315)" stroke-width="0.7" stroke-linecap="butt" stroke-linejoin="miter"/><path d="M190 86 L190 126 " fill="none" stroke="rgba(114,199,181,0.37254901960784315)" stroke-width="0.7" stroke-linecap="butt" stroke-linejoin="miter"/><path d="M190 510 L190 598 " fill="none" stroke="rgba(114,199,181,0.37254901960784315)" stroke-width="0.7" stroke-linecap="butt" stroke-linejoin="miter"/><path d="M290 86 L290 182 " fill="none" stroke="rgba(114,199,181,0.37254901960784315)" stroke-width="0.7" stroke-linecap="butt" stroke-linejoin="miter"/><path d="M290 566 L290 598 " fill="none" stroke="rgba(114,199,181,0.37254901960784315)" stroke-width="0.7" stroke-linecap="butt" stroke-linejoin="miter"/><path d="M40 135 L87 135 Q95 135 95 143 L95 227 Q95 235 103 235 L237 235 Q245 235 245 243 L245 327 Q245 335 237 335 L53 335 Q45 335 45 343 L45 427 Q45 435 53 435 L287 435 Q295 435 295 443 L295 527 Q295 535 303 535 L350 535 " fill="none" stroke="rgba(186,156,136,1)" stroke-width="52" stroke-linecap="round" stroke-linejoin="round"/><path d="M40 135 L87 135 Q95 135 95 143 L95 227 Q95 235 103 235 L237 235 Q245 235 245 243 L245 327 Q245 335 237 335 L53 335 Q45 335 45 343 L45 427 Q45 435 53 435 L287 435 Q295 435 295 443 L295 527 Q295 535 303 535 L350 535 " fill="none" stroke="rgba(255,244,223,1)" stroke-width="49" stroke-linecap="round" stroke-linejoin="round"/><path d="M74 170 L116 170 " fill="none" stroke="rgba(196,181,155,0.5490196078431373)" stroke-width="0.8" stroke-linecap="round" stroke-linejoin="round"/><path d="M95 170 L95 207 " fill="none" stroke="rgba(196,181,155,0.5490196078431373)" stroke-width="0.8" stroke-linecap="round" stroke-linejoin="round"/><path d="M130 256 L130 214 " fill="none" stroke="rgba(196,181,155,0.5490196078431373)" stroke-width="0.8" stroke-linecap="round" stroke-linejoin="round"/><path d="M130 235 L168 235 " fill="none" stroke="rgba(196,181,155,0.5490196078431373)" stroke-width="0.8" stroke-linecap="round" stroke-linejoin="round"/><path d="M168 256 L168 214 " fill="none" stroke="rgba(196,181,155,0.5490196078431373)" stroke-width="0.8" stroke-linecap="round" stroke-linejoin="round"/><path d="M168 235 L206 235 " fill="none" stroke="rgba(196,181,155,0.5490196078431373)" stroke-width="0.8" stroke-linecap="round" stroke-linejoin="round"/><path d="M206 256 L206 214 " fill="none" stroke="rgba(196,181,155,0.5490196078431373)" stroke-width="0.8" stroke-linecap="round" stroke-linejoin="round"/><path d="M206 235 L217 235 " fill="none" stroke="rgba(196,181,155,0.5490196078431373)" stroke-width="0.8" stroke-linecap="round" stroke-linejoin="round"/><path d="M224 270 L266 270 " fill="none" stroke="rgba(196,181,155,0.5490196078431373)" stroke-width="0.8" stroke-linecap="round" stroke-linejoin="round"/><path d="M245 270 L245 307 " fill="none" stroke="rgba(196,181,155,0.5490196078431373)" stroke-width="0.8" stroke-linecap="round" stroke-linejoin="round"/><path d="M210 314 L210 356 " fill="none" stroke="rgba(196,181,155,0.5490196078431373)" stroke-width="0.8" stroke-linecap="round" stroke-linejoin="round"/><path d="M210 335 L172 335 " fill="none" stroke="rgba(196,181,155,0.5490196078431373)" stroke-width="0.8" stroke-linecap="round" stroke-linejoin="round"/><path d="M172 314 L172 356 " fill="none" stroke="rgba(196,181,155,0.5490196078431373)" stroke-width="0.8" stroke-linecap="round" stroke-linejoin="round"/><path d="M172 335 L134 335 " fill="none" stroke="rgba(196,181,155,0.5490196078431373)" stroke-width="0.8" stroke-linecap="round" stroke-linejoin="round"/><path d="M134 314 L134 356 " fill="none" stroke="rgba(196,181,155,0.5490196078431373)" stroke-width="0.8" stroke-linecap="round" stroke-linejoin="round"/><path d="M134 335 L96 335 " fill="none" stroke="rgba(196,181,155,0.5490196078431373)" stroke-width="0.8" stroke-linecap="round" stroke-linejoin="round"/><path d="M96 314 L96 356 " fill="none" stroke="rgba(196,181,155,0.5490196078431373)" stroke-width="0.8" stroke-linecap="round" stroke-linejoin="round"/><path d="M96 335 L73 335 " fill="none" stroke="rgba(196,181,155,0.5490196078431373)" stroke-width="0.8" stroke-linecap="round" stroke-linejoin="round"/><path d="M24 370 L66 370 " fill="none" stroke="rgba(196,181,155,0.5490196078431373)" stroke-width="0.8" stroke-linecap="round" stroke-linejoin="round"/><path d="M45 370 L45 407 " fill="none" stroke="rgba(196,181,155,0.5490196078431373)" stroke-width="0.8" stroke-linecap="round" stroke-linejoin="round"/><path d="M80 456 L80 414 " fill="none" stroke="rgba(196,181,155,0.5490196078431373)" stroke-width="0.8" stroke-linecap="round" stroke-linejoin="round"/><path d="M80 435 L118 435 " fill="none" stroke="rgba(196,181,155,0.5490196078431373)" stroke-width="0.8" stroke-linecap="round" stroke-linejoin="round"/><path d="M118 456 L118 414 " fill="none" stroke="rgba(196,181,155,0.5490196078431373)" stroke-width="0.8" stroke-linecap="round" stroke-linejoin="round"/><path d="M118 435 L156 435 " fill="none" stroke="rgba(196,181,155,0.5490196078431373)" stroke-width="0.8" stroke-linecap="round" stroke-linejoin="round"/><path d="M156 456 L156 414 " fill="none" stroke="rgba(196,181,155,0.5490196078431373)" stroke-width="0.8" stroke-linecap="round" stroke-linejoin="round"/><path d="M156 435 L194 435 " fill="none" stroke="rgba(196,181,155,0.5490196078431373)" stroke-width="0.8" stroke-linecap="round" stroke-linejoin="round"/><path d="M194 456 L194 414 " fill="none" stroke="rgba(196,181,155,0.5490196078431373)" stroke-width="0.8" stroke-linecap="round" stroke-linejoin="round"/><path d="M194 435 L232 435 " fill="none" stroke="rgba(196,181,155,0.5490196078431373)" stroke-width="0.8" stroke-linecap="round" stroke-linejoin="round"/><path d="M232 456 L232 414 " fill="none" stroke="rgba(196,181,155,0.5490196078431373)" stroke-width="0.8" stroke-linecap="round" stroke-linejoin="round"/><path d="M232 435 L267 435 " fill="none" stroke="rgba(196,181,155,0.5490196078431373)" stroke-width="0.8" stroke-linecap="round" stroke-linejoin="round"/><path d="M274 470 L316 470 " fill="none" stroke="rgba(196,181,155,0.5490196078431373)" stroke-width="0.8" stroke-linecap="round" stroke-linejoin="round"/><path d="M295 470 L295 507 " fill="none" stroke="rgba(196,181,155,0.5490196078431373)" stroke-width="0.8" stroke-linecap="round" stroke-linejoin="round"/><rect x="124" y="168" width="92" height="34" rx="4" fill="rgba(152,222,175,1)" stroke="none" stroke-width="0.8" stroke-linecap="round" stroke-linejoin="round"/><rect x="124" y="118" width="42" height="84" rx="4" fill="rgba(152,222,175,1)" stroke="none" stroke-width="0.8" stroke-linecap="round" stroke-linejoin="round"/><rect x="174" y="168" width="92" height="34" rx="4" fill="rgba(152,222,175,1)" stroke="none" stroke-width="0.8" stroke-linecap="round" stroke-linejoin="round"/><rect x="24" y="218" width="42" height="84" rx="4" fill="rgba(152,222,175,1)" stroke="none" stroke-width="0.8" stroke-linecap="round" stroke-linejoin="round"/><rect x="24" y="268" width="92" height="34" rx="4" fill="rgba(152,222,175,1)" stroke="none" stroke-width="0.8" stroke-linecap="round" stroke-linejoin="round"/><rect x="74" y="268" width="92" height="34" rx="4" fill="rgba(152,222,175,1)" stroke="none" stroke-width="0.8" stroke-linecap="round" stroke-linejoin="round"/><rect x="124" y="268" width="92" height="34" rx="4" fill="rgba(152,222,175,1)" stroke="none" stroke-width="0.8" stroke-linecap="round" stroke-linejoin="round"/><rect x="274" y="218" width="42" height="84" rx="4" fill="rgba(152,222,175,1)" stroke="none" stroke-width="0.8" stroke-linecap="round" stroke-linejoin="round"/><rect x="274" y="268" width="42" height="84" rx="4" fill="rgba(152,222,175,1)" stroke="none" stroke-width="0.8" stroke-linecap="round" stroke-linejoin="round"/><rect x="274" y="318" width="42" height="84" rx="4" fill="rgba(152,222,175,1)" stroke="none" stroke-width="0.8" stroke-linecap="round" stroke-linejoin="round"/><rect x="224" y="368" width="92" height="34" rx="4" fill="rgba(152,222,175,1)" stroke="none" stroke-width="0.8" stroke-linecap="round" stroke-linejoin="round"/><rect x="74" y="368" width="92" height="34" rx="4" fill="rgba(152,222,175,1)" stroke="none" stroke-width="0.8" stroke-linecap="round" stroke-linejoin="round"/><rect x="124" y="368" width="92" height="34" rx="4" fill="rgba(152,222,175,1)" stroke="none" stroke-width="0.8" stroke-linecap="round" stroke-linejoin="round"/><rect x="174" y="368" width="92" height="34" rx="4" fill="rgba(152,222,175,1)" stroke="none" stroke-width="0.8" stroke-linecap="round" stroke-linejoin="round"/><rect x="74" y="468" width="92" height="34" rx="4" fill="rgba(152,222,175,1)" stroke="none" stroke-width="0.8" stroke-linecap="round" stroke-linejoin="round"/><rect x="124" y="468" width="92" height="34" rx="4" fill="rgba(152,222,175,1)" stroke="none" stroke-width="0.8" stroke-linecap="round" stroke-linejoin="round"/><rect x="174" y="468" width="92" height="34" rx="4" fill="rgba(152,222,175,1)" stroke="none" stroke-width="0.8" stroke-linecap="round" stroke-linejoin="round"/><rect x="224" y="468" width="42" height="84" rx="4" fill="rgba(152,222,175,1)" stroke="none" stroke-width="0.8" stroke-linecap="round" stroke-linejoin="round"/><rect x="124" y="168" width="42" height="34" rx="4" fill="rgba(152,222,175,1)" stroke="none" stroke-width="0.8" stroke-linecap="round" stroke-linejoin="round"/><rect x="174" y="168" width="42" height="34" rx="4" fill="rgba(152,222,175,1)" stroke="none" stroke-width="0.8" stroke-linecap="round" stroke-linejoin="round"/><rect x="224" y="168" width="42" height="34" rx="4" fill="rgba(152,222,175,1)" stroke="none" stroke-width="0.8" stroke-linecap="round" stroke-linejoin="round"/><rect x="24" y="218" width="42" height="34" rx="4" fill="rgba(152,222,175,1)" stroke="none" stroke-width="0.8" stroke-linecap="round" stroke-linejoin="round"/><rect x="24" y="268" width="42" height="34" rx="4" fill="rgba(152,222,175,1)" stroke="none" stroke-width="0.8" stroke-linecap="round" stroke-linejoin="round"/><rect x="74" y="268" width="42" height="34" rx="4" fill="rgba(152,222,175,1)" stroke="none" stroke-width="0.8" stroke-linecap="round" stroke-linejoin="round"/><rect x="124" y="268" width="42" height="34" rx="4" fill="rgba(152,222,175,1)" stroke="none" stroke-width="0.8" stroke-linecap="round" stroke-linejoin="round"/><rect x="174" y="268" width="42" height="34" rx="4" fill="rgba(152,222,175,1)" stroke="none" stroke-width="0.8" stroke-linecap="round" stroke-linejoin="round"/><rect x="274" y="218" width="42" height="34" rx="4" fill="rgba(152,222,175,1)" stroke="none" stroke-width="0.8" stroke-linecap="round" stroke-linejoin="round"/><rect x="274" y="268" width="42" height="34" rx="4" fill="rgba(152,222,175,1)" stroke="none" stroke-width="0.8" stroke-linecap="round" stroke-linejoin="round"/><rect x="274" y="318" width="42" height="34" rx="4" fill="rgba(152,222,175,1)" stroke="none" stroke-width="0.8" stroke-linecap="round" stroke-linejoin="round"/><rect x="274" y="368" width="42" height="34" rx="4" fill="rgba(152,222,175,1)" stroke="none" stroke-width="0.8" stroke-linecap="round" stroke-linejoin="round"/><rect x="74" y="368" width="42" height="34" rx="4" fill="rgba(152,222,175,1)" stroke="none" stroke-width="0.8" stroke-linecap="round" stroke-linejoin="round"/><rect x="124" y="368" width="42" height="34" rx="4" fill="rgba(152,222,175,1)" stroke="none" stroke-width="0.8" stroke-linecap="round" stroke-linejoin="round"/><rect x="174" y="368" width="42" height="34" rx="4" fill="rgba(152,222,175,1)" stroke="none" stroke-width="0.8" stroke-linecap="round" stroke-linejoin="round"/><rect x="224" y="368" width="42" height="34" rx="4" fill="rgba(152,222,175,1)" stroke="none" stroke-width="0.8" stroke-linecap="round" stroke-linejoin="round"/><rect x="74" y="468" width="42" height="34" rx="4" fill="rgba(152,222,175,1)" stroke="none" stroke-width="0.8" stroke-linecap="round" stroke-linejoin="round"/><rect x="124" y="468" width="42" height="34" rx="4" fill="rgba(152,222,175,1)" stroke="none" stroke-width="0.8" stroke-linecap="round" stroke-linejoin="round"/><rect x="174" y="468" width="42" height="34" rx="4" fill="rgba(152,222,175,1)" stroke="none" stroke-width="0.8" stroke-linecap="round" stroke-linejoin="round"/><rect x="224" y="468" width="42" height="34" rx="4" fill="rgba(152,222,175,1)" stroke="none" stroke-width="0.8" stroke-linecap="round" stroke-linejoin="round"/><rect x="224" y="518" width="42" height="34" rx="4" fill="rgba(152,222,175,1)" stroke="none" stroke-width="0.8" stroke-linecap="round" stroke-linejoin="round"/><rect x="124" y="118" width="42" height="34" rx="4" fill="rgba(152,222,175,1)" stroke="none" stroke-width="0.8" stroke-linecap="round" stroke-linejoin="round"/><rect x="126" y="170" width="38" height="30" rx="2" fill="rgba(236,248,223,1)" stroke="none" stroke-width="0.8" stroke-linecap="round" stroke-linejoin="round"/><rect x="126" y="170" width="38" height="30" rx="2" fill="none" stroke="rgba(92,171,113,0.49019607843137253)" stroke-width="0.8" stroke-linecap="round" stroke-linejoin="round"/><rect x="176" y="170" width="38" height="30" rx="2" fill="rgba(236,248,223,1)" stroke="none" stroke-width="0.8" stroke-linecap="round" stroke-linejoin="round"/><rect x="176" y="170" width="38" height="30" rx="2" fill="none" stroke="rgba(92,171,113,0.49019607843137253)" stroke-width="0.8" stroke-linecap="round" stroke-linejoin="round"/><rect x="226" y="170" width="38" height="30" rx="2" fill="rgba(236,248,223,1)" stroke="none" stroke-width="0.8" stroke-linecap="round" stroke-linejoin="round"/><rect x="226" y="170" width="38" height="30" rx="2" fill="none" stroke="rgba(92,171,113,0.49019607843137253)" stroke-width="0.8" stroke-linecap="round" stroke-linejoin="round"/><rect x="26" y="220" width="38" height="30" rx="2" fill="rgba(236,248,223,1)" stroke="none" stroke-width="0.8" stroke-linecap="round" stroke-linejoin="round"/><rect x="26" y="220" width="38" height="30" rx="2" fill="none" stroke="rgba(92,171,113,0.49019607843137253)" stroke-width="0.8" stroke-linecap="round" stroke-linejoin="round"/><rect x="26" y="270" width="38" height="30" rx="2" fill="rgba(236,248,223,1)" stroke="none" stroke-width="0.8" stroke-linecap="round" stroke-linejoin="round"/><rect x="26" y="270" width="38" height="30" rx="2" fill="none" stroke="rgba(92,171,113,0.49019607843137253)" stroke-width="0.8" stroke-linecap="round" stroke-linejoin="round"/><rect x="76" y="270" width="38" height="30" rx="2" fill="rgba(236,248,223,1)" stroke="none" stroke-width="0.8" stroke-linecap="round" stroke-linejoin="round"/><rect x="76" y="270" width="38" height="30" rx="2" fill="none" stroke="rgba(92,171,113,0.49019607843137253)" stroke-width="0.8" stroke-linecap="round" stroke-linejoin="round"/><rect x="126" y="270" width="38" height="30" rx="2" fill="rgba(236,248,223,1)" stroke="none" stroke-width="0.8" stroke-linecap="round" stroke-linejoin="round"/><rect x="126" y="270" width="38" height="30" rx="2" fill="none" stroke="rgba(92,171,113,0.49019607843137253)" stroke-width="0.8" stroke-linecap="round" stroke-linejoin="round"/><rect x="176" y="270" width="38" height="30" rx="2" fill="rgba(236,248,223,1)" stroke="none" stroke-width="0.8" stroke-linecap="round" stroke-linejoin="round"/><rect x="176" y="270" width="38" height="30" rx="2" fill="none" stroke="rgba(92,171,113,0.49019607843137253)" stroke-width="0.8" stroke-linecap="round" stroke-linejoin="round"/><rect x="276" y="220" width="38" height="30" rx="2" fill="rgba(236,248,223,1)" stroke="none" stroke-width="0.8" stroke-linecap="round" stroke-linejoin="round"/><rect x="276" y="220" width="38" height="30" rx="2" fill="none" stroke="rgba(92,171,113,0.49019607843137253)" stroke-width="0.8" stroke-linecap="round" stroke-linejoin="round"/><rect x="276" y="270" width="38" height="30" rx="2" fill="rgba(236,248,223,1)" stroke="none" stroke-width="0.8" stroke-linecap="round" stroke-linejoin="round"/><rect x="276" y="270" width="38" height="30" rx="2" fill="none" stroke="rgba(92,171,113,0.49019607843137253)" stroke-width="0.8" stroke-linecap="round" stroke-linejoin="round"/><rect x="276" y="320" width="38" height="30" rx="2" fill="rgba(236,248,223,1)" stroke="none" stroke-width="0.8" stroke-linecap="round" stroke-linejoin="round"/><rect x="276" y="320" width="38" height="30" rx="2" fill="none" stroke="rgba(92,171,113,0.49019607843137253)" stroke-width="0.8" stroke-linecap="round" stroke-linejoin="round"/><rect x="276" y="370" width="38" height="30" rx="2" fill="rgba(236,248,223,1)" stroke="none" stroke-width="0.8" stroke-linecap="round" stroke-linejoin="round"/><rect x="276" y="370" width="38" height="30" rx="2" fill="none" stroke="rgba(92,171,113,0.49019607843137253)" stroke-width="0.8" stroke-linecap="round" stroke-linejoin="round"/><rect x="76" y="370" width="38" height="30" rx="2" fill="rgba(236,248,223,1)" stroke="none" stroke-width="0.8" stroke-linecap="round" stroke-linejoin="round"/><rect x="76" y="370" width="38" height="30" rx="2" fill="none" stroke="rgba(92,171,113,0.49019607843137253)" stroke-width="0.8" stroke-linecap="round" stroke-linejoin="round"/><rect x="126" y="370" width="38" height="30" rx="2" fill="rgba(236,248,223,1)" stroke="none" stroke-width="0.8" stroke-linecap="round" stroke-linejoin="round"/><rect x="126" y="370" width="38" height="30" rx="2" fill="none" stroke="rgba(92,171,113,0.49019607843137253)" stroke-width="0.8" stroke-linecap="round" stroke-linejoin="round"/><rect x="176" y="370" width="38" height="30" rx="2" fill="rgba(236,248,223,1)" stroke="none" stroke-width="0.8" stroke-linecap="round" stroke-linejoin="round"/><rect x="176" y="370" width="38" height="30" rx="2" fill="none" stroke="rgba(92,171,113,0.49019607843137253)" stroke-width="0.8" stroke-linecap="round" stroke-linejoin="round"/><rect x="226" y="370" width="38" height="30" rx="2" fill="rgba(236,248,223,1)" stroke="none" stroke-width="0.8" stroke-linecap="round" stroke-linejoin="round"/><rect x="226" y="370" width="38" height="30" rx="2" fill="none" stroke="rgba(92,171,113,0.49019607843137253)" stroke-width="0.8" stroke-linecap="round" stroke-linejoin="round"/><rect x="76" y="470" width="38" height="30" rx="2" fill="rgba(236,248,223,1)" stroke="none" stroke-width="0.8" stroke-linecap="round" stroke-linejoin="round"/><rect x="76" y="470" width="38" height="30" rx="2" fill="none" stroke="rgba(92,171,113,0.49019607843137253)" stroke-width="0.8" stroke-linecap="round" stroke-linejoin="round"/><rect x="126" y="470" width="38" height="30" rx="2" fill="rgba(236,248,223,1)" stroke="none" stroke-width="0.8" stroke-linecap="round" stroke-linejoin="round"/><rect x="126" y="470" width="38" height="30" rx="2" fill="none" stroke="rgba(92,171,113,0.49019607843137253)" stroke-width="0.8" stroke-linecap="round" stroke-linejoin="round"/><rect x="176" y="470" width="38" height="30" rx="2" fill="rgba(236,248,223,1)" stroke="none" stroke-width="0.8" stroke-linecap="round" stroke-linejoin="round"/><rect x="176" y="470" width="38" height="30" rx="2" fill="none" stroke="rgba(92,171,113,0.49019607843137253)" stroke-width="0.8" stroke-linecap="round" stroke-linejoin="round"/><rect x="226" y="470" width="38" height="30" rx="2" fill="rgba(236,248,223,1)" stroke="none" stroke-width="0.8" stroke-linecap="round" stroke-linejoin="round"/><rect x="226" y="470" width="38" height="30" rx="2" fill="none" stroke="rgba(92,171,113,0.49019607843137253)" stroke-width="0.8" stroke-linecap="round" stroke-linejoin="round"/><rect x="226" y="520" width="38" height="30" rx="2" fill="rgba(236,248,223,1)" stroke="none" stroke-width="0.8" stroke-linecap="round" stroke-linejoin="round"/><rect x="226" y="520" width="38" height="30" rx="2" fill="none" stroke="rgba(92,171,113,0.49019607843137253)" stroke-width="0.8" stroke-linecap="round" stroke-linejoin="round"/><rect x="126" y="120" width="38" height="30" rx="2" fill="rgba(236,248,223,1)" stroke="none" stroke-width="0.8" stroke-linecap="round" stroke-linejoin="round"/><rect x="126" y="120" width="38" height="30" rx="2" fill="none" stroke="rgba(92,171,113,0.49019607843137253)" stroke-width="0.8" stroke-linecap="round" stroke-linejoin="round"/><rect x="15" y="155" width="50" height="12" rx="2" fill="rgba(199,190,163,1)" stroke="none" stroke-width="0.8" stroke-linecap="round" stroke-linejoin="round"/><rect x="18" y="156" width="44" height="9" rx="1" fill="rgba(240,223,189,1)" stroke="none" stroke-width="0.8" stroke-linecap="round" stroke-linejoin="round"/><path d="M33 156 L33 165 " fill="none" stroke="rgba(199,190,163,0.5882352941176471)" stroke-width="0.7" stroke-linecap="round" stroke-linejoin="round"/><path d="M48 156 L48 165 " fill="none" stroke="rgba(199,190,163,0.5882352941176471)" stroke-width="0.7" stroke-linecap="round" stroke-linejoin="round"/><rect x="325" y="555" width="50" height="12" rx="2" fill="rgba(199,190,163,1)" stroke="none" stroke-width="0.7" stroke-linecap="round" stroke-linejoin="round"/><rect x="328" y="556" width="44" height="9" rx="1" fill="rgba(240,223,189,1)" stroke="none" stroke-width="0.7" stroke-linecap="round" stroke-linejoin="round"/><path d="M343 556 L343 565 " fill="none" stroke="rgba(199,190,163,0.5882352941176471)" stroke-width="0.7" stroke-linecap="round" stroke-linejoin="round"/><path d="M358 556 L358 565 " fill="none" stroke="rgba(199,190,163,0.5882352941176471)" stroke-width="0.7" stroke-linecap="round" stroke-linejoin="round"/><path d="M66.9 140 L74.9 135 L66.9 130 " fill="none" stroke="rgba(155,121,84,0.7058823529411765)" stroke-width="3" stroke-linecap="round" stroke-linejoin="round"/></svg>