<svg xmlns="http://www.w3.org/2000/svg" width="780" height="1388" viewBox="0 0 390 694"><path d="M324 130 L378 130 " fill="none" stroke="rgba(157,171,198,0.37254901960784315)" stroke-width="0.7" stroke-linecap="butt" stroke-linejoin="miter"/><path d="M12 330 L60 330 " fill="none" stroke="rgba(157,171,198,0.37254901960784315)" stroke-width="0.7" stroke-linecap="butt" stroke-linejoin="miter"/><path d="M12 430 L60 430 " fill="none" stroke="rgba(157,171,198,0.37254901960784315)" stroke-width="0.7" stroke-linecap="butt" stroke-linejoin="miter"/><path d="M236 530 L378 530 " fill="none" stroke="rgba(157,171,198,0.37254901960784315)" stroke-width="0.7" stroke-linecap="butt" stroke-linejoin="miter"/><path d="M90 86 L90 102 " fill="none" stroke="rgba(157,171,198,0.37254901960784315)" stroke-width="0.7" stroke-linecap="butt" stroke-linejoin="miter"/><path d="M90 166 L90 206 " fill="none" stroke="rgba(157,171,198,0.37254901960784315)" stroke-width="0.7" stroke-linecap="butt" stroke-linejoin="miter"/><path d="M90 454 L90 502 " fill="none" stroke="rgba(157,171,198,0.37254901960784315)" stroke-width="0.7" stroke-linecap="butt" stroke-linejoin="miter"/><path d="M90 566 L90 598 " fill="none" stroke="rgba(157,171,198,0.37254901960784315)" stroke-width="0.7" stroke-linecap="butt" stroke-linejoin="miter"/><path d="M165 86 L165 102 " fill="none" stroke="rgba(157,171,198,0.37254901960784315)" stroke-width="0.7" stroke-linecap="butt" stroke-linejoin="miter"/><path d="M165 558 L165 598 " fill="none" stroke="rgba(157,171,198,0.37254901960784315)" stroke-width="0.7" stroke-linecap="butt" stroke-linejoin="miter"/><path d="M240 86 L240 102 " fill="none" stroke="rgba(157,171,198,0.37254901960784315)" stroke-width="0.7" stroke-linecap="butt" stroke-linejoin="miter"/><path d="M240 510 L240 598 " fill="none" stroke="rgba(157,171,198,0.37254901960784315)" stroke-width="0.7" stroke-linecap="butt" stroke-linejoin="miter"/><path d="M315 86 L315 110 " fill="none" stroke="rgba(157,171,198,0.37254901960784315)" stroke-width="0.7" stroke-linecap="butt" stroke-linejoin="miter"/><path d="M315 510 L315 598 " fill="none" stroke="rgba(157,171,198,0.37254901960784315)" stroke-width="0.7" stroke-linecap="butt" stroke-linejoin="miter"/><path d="M40 135 L287 135 Q295 135 295 143 L295 227 Q295 235 287 235 L103 235 Q95 235 95 243 L95 327 Q95 335 103 335 L337 335 Q345 335 345 343 L345 427 Q345 435 337 435 L153 435 Q145 435 145 443 L145 527 Q145 535 137 535 L40 535 " fill="none" stroke="rgba(160,167,189,1)" stroke-width="52" stroke-linecap="round" stroke-linejoin="round"/><path d="M40 135 L287 135 Q295 135 295 143 L295 227 Q295 235 287 235 L103 235 Q95 235 95 243 L95 327 Q95 335 103 335 L337 335 Q345 335 345 343 L345 427 Q345 435 337 435 L153 435 Q145 435 145 443 L145 527 Q145 535 137 535 L40 535 " fill="none" stroke="rgba(226,223,223,1)" stroke-width="49" stroke-linecap="round" stroke-linejoin="round"/><path d="M75 156 L75 114 " fill="none" stroke="rgba(196,181,155,0.5490196078431373)" stroke-width="0.8" stroke-linecap="round" stroke-linejoin="round"/><path d="M75 135 L113 135 " fill="none" stroke="rgba(196,181,155,0.5490196078431373)" stroke-width="0.8" stroke-linecap="round" stroke-linejoin="round"/><path d="M113 156 L113 114 " fill="none" stroke="rgba(196,181,155,0.5490196078431373)" stroke-width="0.8" stroke-linecap="round" stroke-linejoin="round"/><path d="M113 135 L151 135 " fill="none" stroke="rgba(196,181,155,0.5490196078431373)" stroke-width="0.8" stroke-linecap="round" stroke-linejoin="round"/><path d="M151 156 L151 114 " fill="none" stroke="rgba(196,181,155,0.5490196078431373)" stroke-width="0.8" stroke-linecap="round" stroke-linejoin="round"/><path d="M151 135 L189 135 " fill="none" stroke="rgba(196,181,155,0.5490196078431373)" stroke-width="0.8" stroke-linecap="round" stroke-linejoin="round"/><path d="M189 156 L189 114 " fill="none" stroke="rgba(196,181,155,0.5490196078431373)" stroke-width="0.8" stroke-linecap="round" stroke-linejoin="round"/><path d="M189 135 L227 135 " fill="none" stroke="rgba(196,181,155,0.5490196078431373)" stroke-width="0.8" stroke-linecap="round" stroke-linejoin="round"/><path d="M227 156 L227 114 " fill="none" stroke="rgba(196,181,155,0.5490196078431373)" stroke-width="0.8" stroke-linecap="round" stroke-linejoin="round"/><path d="M227 135 L265 135 " fill="none" stroke="rgba(196,181,155,0.5490196078431373)" stroke-width="0.8" stroke-linecap="round" stroke-linejoin="round"/><path d="M265 156 L265 114 " fill="none" stroke="rgba(196,181,155,0.5490196078431373)" stroke-width="0.8" stroke-linecap="round" stroke-linejoin="round"/><path d="M265 135 L267 135 " fill="none" stroke="rgba(196,181,155,0.5490196078431373)" stroke-width="0.8" stroke-linecap="round" stroke-linejoin="round"/><path d="M274 170 L316 170 " fill="none" stroke="rgba(196,181,155,0.5490196078431373)" stroke-width="0.8" stroke-linecap="round" stroke-linejoin="round"/><path d="M295 170 L295 207 " fill="none" stroke="rgba(196,181,155,0.5490196078431373)" stroke-width="0.8" stroke-linecap="round" stroke-linejoin="round"/><path d="M260 214 L260 256 " fill="none" stroke="rgba(196,181,155,0.5490196078431373)" stroke-width="0.8" stroke-linecap="round" stroke-linejoin="round"/><path d="M260 235 L222 235 " fill="none" stroke="rgba(196,181,155,0.5490196078431373)" stroke-width="0.8" stroke-linecap="round" stroke-linejoin="round"/><path d="M222 214 L222 256 " fill="none" stroke="rgba(196,181,155,0.5490196078431373)" stroke-width="0.8" stroke-linecap="round" stroke-linejoin="round"/><path d="M222 235 L184 235 " fill="none" stroke="rgba(196,181,155,0.5490196078431373)" stroke-width="0.8" stroke-linecap="round" stroke-linejoin="round"/><path d="M184 214 L184 256 " fill="none" stroke="rgba(196,181,155,0.5490196078431373)" stroke-width="0.8" stroke-linecap="round" stroke-linejoin="round"/><path d="M184 235 L146 235 " fill="none" stroke="rgba(196,181,155,0.5490196078431373)" stroke-width="0.8" stroke-linecap="round" stroke-linejoin="round"/><path d="M146 214 L146 256 " fill="none" stroke="rgba(196,181,155,0.5490196078431373)" stroke-width="0.8" stroke-linecap="round" stroke-linejoin="round"/><path d="M146 235 L123 235 " fill="none" stroke="rgba(196,181,155,0.5490196078431373)" stroke-width="0.8" stroke-linecap="round" stroke-linejoin="round"/><path d="M74 270 L116 270 " fill="none" stroke="rgba(196,181,155,0.5490196078431373)" stroke-width="0.8" stroke-linecap="round" stroke-linejoin="round"/><path d="M95 270 L95 307 " fill="none" stroke="rgba(196,181,155,0.5490196078431373)" stroke-width="0.8" stroke-linecap="round" stroke-linejoin="round"/><path d="M130 356 L130 314 " fill="none" stroke="rgba(196,181,155,0.5490196078431373)" stroke-width="0.8" stroke-linecap="round" stroke-linejoin="round"/><path d="M130 335 L168 335 " fill="none" stroke="rgba(196,181,155,0.5490196078431373)" stroke-width="0.8" stroke-linecap="round" stroke-linejoin="round"/><path d="M168 356 L168 314 " fill="none" stroke="rgba(196,181,155,0.5490196078431373)" stroke-width="0.8" stroke-linecap="round" stroke-linejoin="round"/><path d="M168 335 L206 335 " fill="none" stroke="rgba(196,181,155,0.5490196078431373)" stroke-width="0.8" stroke-linecap="round" stroke-linejoin="round"/><path d="M206 356 L206 314 " fill="none" stroke="rgba(196,181,155,0.5490196078431373)" stroke-width="0.8" stroke-linecap="round" stroke-linejoin="round"/><path d="M206 335 L244 335 " fill="none" stroke="rgba(196,181,155,0.5490196078431373)" stroke-width="0.8" stroke-linecap="round" stroke-linejoin="round"/><path d="M244 356 L244 314 " fill="none" stroke="rgba(196,181,155,0.5490196078431373)" stroke-width="0.8" stroke-linecap="round" stroke-linejoin="round"/><path d="M244 335 L282 335 " fill="none" stroke="rgba(196,181,155,0.5490196078431373)" stroke-width="0.8" stroke-linecap="round" stroke-linejoin="round"/><path d="M282 356 L282 314 " fill="none" stroke="rgba(196,181,155,0.5490196078431373)" stroke-width="0.8" stroke-linecap="round" stroke-linejoin="round"/><path d="M282 335 L317 335 " fill="none" stroke="rgba(196,181,155,0.5490196078431373)" stroke-width="0.8" stroke-linecap="round" stroke-linejoin="round"/><path d="M324 370 L366 370 " fill="none" stroke="rgba(196,181,155,0.5490196078431373)" stroke-width="0.8" stroke-linecap="round" stroke-linejoin="round"/><path d="M345 370 L345 407 " fill="none" stroke="rgba(196,181,155,0.5490196078431373)" stroke-width="0.8" stroke-linecap="round" stroke-linejoin="round"/><path d="M310 414 L310 456 " fill="none" stroke="rgba(196,181,155,0.5490196078431373)" stroke-width="0.8" stroke-linecap="round" stroke-linejoin="round"/><path d="M310 435 L272 435 " fill="none" stroke="rgba(196,181,155,0.5490196078431373)" stroke-width="0.8" stroke-linecap="round" stroke-linejoin="round"/><path d="M272 414 L272 456 " fill="none" stroke="rgba(196,181,155,0.5490196078431373)" stroke-width="0.8" stroke-linecap="round" stroke-linejoin="round"/><path d="M272 435 L234 435 " fill="none" stroke="rgba(196,181,155,0.5490196078431373)" stroke-width="0.8" stroke-linecap="round" stroke-linejoin="round"/><path d="M234 414 L234 456 " fill="none" stroke="rgba(196,181,155,0.5490196078431373)" stroke-width="0.8" stroke-linecap="round" stroke-linejoin="round"/><path d="M234 435 L196 435 " fill="none" stroke="rgba(196,181,155,0.5490196078431373)" stroke-width="0.8" stroke-linecap="round" stroke-linejoin="round"/><path d="M196 414 L196 456 " fill="none" stroke="rgba(196,181,155,0.5490196078431373)" stroke-width="0.8" stroke-linecap="round" stroke-linejoin="round"/><path d="M196 435 L173 435 " fill="none" stroke="rgba(196,181,155,0.5490196078431373)" stroke-width="0.8" stroke-linecap="round" stroke-linejoin="round"/><path d="M124 470 L166 470 " fill="none" stroke="rgba(196,181,155,0.5490196078431373)" stroke-width="0.8" stroke-linecap="round" stroke-linejoin="round"/><path d="M145 470 L145 507 " fill="none" stroke="rgba(196,181,155,0.5490196078431373)" stroke-width="0.8" stroke-linecap="round" stroke-linejoin="round"/><path d="M110 514 L110 556 " fill="none" stroke="rgba(196,181,155,0.5490196078431373)" stroke-width="0.8" stroke-linecap="round" stroke-linejoin="round"/><path d="M110 535 L72 535 " fill="none" stroke="rgba(196,181,155,0.5490196078431373)" stroke-width="0.8" stroke-linecap="round" stroke-linejoin="round"/><path d="M72 514 L72 556 " fill="none" stroke="rgba(196,181,155,0.5490196078431373)" stroke-width="0.8" stroke-linecap="round" stroke-linejoin="round"/><path d="M72 535 L68 535 " fill="none" stroke="rgba(196,181,155,0.5490196078431373)" stroke-width="0.8" stroke-linecap="round" stroke-linejoin="round"/><rect x="324" y="168" width="42" height="84" rx="4" fill="rgba(185,199,199,1)" stroke="none" stroke-width="0.8" stroke-linecap="round" stroke-linejoin="round"/><rect x="24" y="218" width="42" height="84" rx="4" fill="rgba(185,199,199,1)" stroke="none" stroke-width="0.8" stroke-linecap="round" stroke-linejoin="round"/><rect x="124" y="168" width="92" height="34" rx="4" fill="rgba(185,199,199,1)" stroke="none" stroke-width="0.8" stroke-linecap="round" stroke-linejoin="round"/><rect x="174" y="168" width="92" height="34" rx="4" fill="rgba(185,199,199,1)" stroke="none" stroke-width="0.8" stroke-linecap="round" stroke-linejoin="round"/><rect x="174" y="268" width="92" height="34" rx="4" fill="rgba(185,199,199,1)" stroke="none" stroke-width="0.8" stroke-linecap="round" stroke-linejoin="round"/><rect x="224" y="268" width="92" height="34" rx="4" fill="rgba(185,199,199,1)" stroke="none" stroke-width="0.8" stroke-linecap="round" stroke-linejoin="round"/><rect x="324" y="218" width="42" height="84" rx="4" fill="rgba(185,199,199,1)" stroke="none" stroke-width="0.8" stroke-linecap="round" stroke-linejoin="round"/><rect x="274" y="268" width="92" height="34" rx="4" fill="rgba(185,199,199,1)" stroke="none" stroke-width="0.8" stroke-linecap="round" stroke-linejoin="round"/><rect x="74" y="368" width="42" height="84" rx="4" fill="rgba(185,199,199,1)" stroke="none" stroke-width="0.8" stroke-linecap="round" stroke-linejoin="round"/><rect x="74" y="368" width="92" height="34" rx="4" fill="rgba(185,199,199,1)" stroke="none" stroke-width="0.8" stroke-linecap="round" stroke-linejoin="round"/><rect x="124" y="268" width="92" height="34" rx="4" fill="rgba(185,199,199,1)" stroke="none" stroke-width="0.8" stroke-linecap="round" stroke-linejoin="round"/><rect x="224" y="368" width="92" height="34" rx="4" fill="rgba(185,199,199,1)" stroke="none" stroke-width="0.8" stroke-linecap="round" stroke-linejoin="round"/><rect x="124" y="368" width="92" height="34" rx="4" fill="rgba(185,199,199,1)" stroke="none" stroke-width="0.8" stroke-linecap="round" stroke-linejoin="round"/><rect x="174" y="368" width="92" height="34" rx="4" fill="rgba(185,199,199,1)" stroke="none" stroke-width="0.8" stroke-linecap="round" stroke-linejoin="round"/><rect x="174" y="468" width="42" height="84" rx="4" fill="rgba(185,199,199,1)" stroke="none" stroke-width="0.8" stroke-linecap="round" stroke-linejoin="round"/><rect x="174" y="468" width="92" height="34" rx="4" fill="rgba(185,199,199,1)" stroke="none" stroke-width="0.8" stroke-linecap="round" stroke-linejoin="round"/><rect x="224" y="468" width="92" height="34" rx="4" fill="rgba(185,199,199,1)" stroke="none" stroke-width="0.8" stroke-linecap="round" stroke-linejoin="round"/><rect x="324" y="168" width="42" height="34" rx="4" fill="rgba(185,199,199,1)" stroke="none" stroke-width="0.8" stroke-linecap="round" stroke-linejoin="round"/><rect x="24" y="218" width="42" height="34" rx="4" fill="rgba(185,199,199,1)" stroke="none" stroke-width="0.8" stroke-linecap="round" stroke-linejoin="round"/><rect x="124" y="168" width="42" height="34" rx="4" fill="rgba(185,199,199,1)" stroke="none" stroke-width="0.8" stroke-linecap="round" stroke-linejoin="round"/><rect x="174" y="168" width="42" height="34" rx="4" fill="rgba(185,199,199,1)" stroke="none" stroke-width="0.8" stroke-linecap="round" stroke-linejoin="round"/><rect x="224" y="168" width="42" height="34" rx="4" fill="rgba(185,199,199,1)" stroke="none" stroke-width="0.8" stroke-linecap="round" stroke-linejoin="round"/><rect x="224" y="268" width="42" height="34" rx="4" fill="rgba(185,199,199,1)" stroke="none" stroke-width="0.8" stroke-linecap="round" stroke-linejoin="round"/><rect x="324" y="218" width="42" height="34" rx="4" fill="rgba(185,199,199,1)" stroke="none" stroke-width="0.8" stroke-linecap="round" stroke-linejoin="round"/><rect x="24" y="268" width="42" height="34" rx="4" fill="rgba(185,199,199,1)" stroke="none" stroke-width="0.8" stroke-linecap="round" stroke-linejoin="round"/><rect x="324" y="268" width="42" height="34" rx="4" fill="rgba(185,199,199,1)" stroke="none" stroke-width="0.8" stroke-linecap="round" stroke-linejoin="round"/><rect x="74" y="368" width="42" height="34" rx="4" fill="rgba(185,199,199,1)" stroke="none" stroke-width="0.8" stroke-linecap="round" stroke-linejoin="round"/><rect x="124" y="268" width="42" height="34" rx="4" fill="rgba(185,199,199,1)" stroke="none" stroke-width="0.8" stroke-linecap="round" stroke-linejoin="round"/><rect x="174" y="268" width="42" height="34" rx="4" fill="rgba(185,199,199,1)" stroke="none" stroke-width="0.8" stroke-linecap="round" stroke-linejoin="round"/><rect x="274" y="268" width="42" height="34" rx="4" fill="rgba(185,199,199,1)" stroke="none" stroke-width="0.8" stroke-linecap="round" stroke-linejoin="round"/><rect x="274" y="368" width="42" height="34" rx="4" fill="rgba(185,199,199,1)" stroke="none" stroke-width="0.8" stroke-linecap="round" stroke-linejoin="round"/><rect x="74" y="418" width="42" height="34" rx="4" fill="rgba(185,199,199,1)" stroke="none" stroke-width="0.8" stroke-linecap="round" stroke-linejoin="round"/><rect x="124" y="368" width="42" height="34" rx="4" fill="rgba(185,199,199,1)" stroke="none" stroke-width="0.8" stroke-linecap="round" stroke-linejoin="round"/><rect x="174" y="368" width="42" height="34" rx="4" fill="rgba(185,199,199,1)" stroke="none" stroke-width="0.8" stroke-linecap="round" stroke-linejoin="round"/><rect x="224" y="368" width="42" height="34" rx="4" fill="rgba(185,199,199,1)" stroke="none" stroke-width="0.8" stroke-linecap="round" stroke-linejoin="round"/><rect x="174" y="468" width="42" height="34" rx="4" fill="rgba(185,199,199,1)" stroke="none" stroke-width="0.8" stroke-linecap="round" stroke-linejoin="round"/><rect x="174" y="518" width="42" height="34" rx="4" fill="rgba(185,199,199,1)" stroke="none" stroke-width="0.8" stroke-linecap="round" stroke-linejoin="round"/><rect x="224" y="468" width="42" height="34" rx="4" fill="rgba(185,199,199,1)" stroke="none" stroke-width="0.8" stroke-linecap="round" stroke-linejoin="round"/><rect x="274" y="468" width="42" height="34" rx="4" fill="rgba(185,199,199,1)" stroke="none" stroke-width="0.8" stroke-linecap="round" stroke-linejoin="round"/><rect x="326" y="170" width="38" height="30" rx="2" fill="rgba(216,220,230,1)" stroke="none" stroke-width="0.8" stroke-linecap="round" stroke-linejoin="round"/><rect x="326" y="170" width="38" height="30" rx="2" fill="none" stroke="rgba(134,155,168,0.49019607843137253)" stroke-width="0.8" stroke-linecap="round" stroke-linejoin="round"/><rect x="26" y="220" width="38" height="30" rx="2" fill="rgba(216,220,230,1)" stroke="none" stroke-width="0.8" stroke-linecap="round" stroke-linejoin="round"/><rect x="26" y="220" width="38" height="30" rx="2" fill="none" stroke="rgba(134,155,168,0.49019607843137253)" stroke-width="0.8" stroke-linecap="round" stroke-linejoin="round"/><rect x="126" y="170" width="38" height="30" rx="2" fill="rgba(216,220,230,1)" stroke="none" stroke-width="0.8" stroke-linecap="round" stroke-linejoin="round"/><rect x="126" y="170" width="38" height="30" rx="2" fill="none" stroke="rgba(134,155,168,0.49019607843137253)" stroke-width="0.8" stroke-linecap="round" stroke-linejoin="round"/><rect x="176" y="170" width="38" height="30" rx="2" fill="rgba(216,220,230,1)" stroke="none" stroke-width="0.8" stroke-linecap="round" stroke-linejoin="round"/><rect x="176" y="170" width="38" height="30" rx="2" fill="none" stroke="rgba(134,155,168,0.49019607843137253)" stroke-width="0.8" stroke-linecap="round" stroke-linejoin="round"/><rect x="226" y="170" width="38" height="30" rx="2" fill="rgba(216,220,230,1)" stroke="none" stroke-width="0.8" stroke-linecap="round" stroke-linejoin="round"/><rect x="226" y="170" width="38" height="30" rx="2" fill="none" stroke="rgba(134,155,168,0.49019607843137253)" stroke-width="0.8" stroke-linecap="round" stroke-linejoin="round"/><rect x="226" y="270" width="38" height="30" rx="2" fill="rgba(216,220,230,1)" stroke="none" stroke-width="0.8" stroke-linecap="round" stroke-linejoin="round"/><rect x="226" y="270" width="38" height="30" rx="2" fill="none" stroke="rgba(134,155,168,0.49019607843137253)" stroke-width="0.8" stroke-linecap="round" stroke-linejoin="round"/><rect x="326" y="220" width="38" height="30" rx="2" fill="rgba(216,220,230,1)" stroke="none" stroke-width="0.8" stroke-linecap="round" stroke-linejoin="round"/><rect x="326" y="220" width="38" height="30" rx="2" fill="none" stroke="rgba(134,155,168,0.49019607843137253)" stroke-width="0.8" stroke-linecap="round" stroke-linejoin="round"/><rect x="26" y="270" width="38" height="30" rx="2" fill="rgba(216,220,230,1)" stroke="none" stroke-width="0.8" stroke-linecap="round" stroke-linejoin="round"/><rect x="26" y="270" width="38" height="30" rx="2" fill="none" stroke="rgba(134,155,168,0.49019607843137253)" stroke-width="0.8" stroke-linecap="round" stroke-linejoin="round"/><rect x="326" y="270" width="38" height="30" rx="2" fill="rgba(216,220,230,1)" stroke="none" stroke-width="0.8" stroke-linecap="round" stroke-linejoin="round"/><rect x="326" y="270" width="38" height="30" rx="2" fill="none" stroke="rgba(134,155,168,0.49019607843137253)" stroke-width="0.8" stroke-linecap="round" stroke-linejoin="round"/><rect x="76" y="370" width="38" height="30" rx="2" fill="rgba(216,220,230,1)" stroke="none" stroke-width="0.8" stroke-linecap="round" stroke-linejoin="round"/><rect x="76" y="370" width="38" height="30" rx="2" fill="none" stroke="rgba(134,155,168,0.49019607843137253)" stroke-width="0.8" stroke-linecap="round" stroke-linejoin="round"/><rect x="126" y="270" width="38" height="30" rx="2" fill="rgba(216,220,230,1)" stroke="none" stroke-width="0.8" stroke-linecap="round" stroke-linejoin="round"/><rect x="126" y="270" width="38" height="30" rx="2" fill="none" stroke="rgba(134,155,168,0.49019607843137253)" stroke-width="0.8" stroke-linecap="round" stroke-linejoin="round"/><rect x="176" y="270" width="38" height="30" rx="2" fill="rgba(216,220,230,1)" stroke="none" stroke-width="0.8" stroke-linecap="round" stroke-linejoin="round"/><rect x="176" y="270" width="38" height="30" rx="2" fill="none" stroke="rgba(134,155,168,0.49019607843137253)" stroke-width="0.8" stroke-linecap="round" stroke-linejoin="round"/><rect x="276" y="270" width="38" height="30" rx="2" fill="rgba(216,220,230,1)" stroke="none" stroke-width="0.8" stroke-linecap="round" stroke-linejoin="round"/><rect x="276" y="270" width="38" height="30" rx="2" fill="none" stroke="rgba(134,155,168,0.49019607843137253)" stroke-width="0.8" stroke-linecap="round" stroke-linejoin="round"/><rect x="276" y="370" width="38" height="30" rx="2" fill="rgba(216,220,230,1)" stroke="none" stroke-width="0.8" stroke-linecap="round" stroke-linejoin="round"/><rect x="276" y="370" width="38" height="30" rx="2" fill="none" stroke="rgba(134,155,168,0.49019607843137253)" stroke-width="0.8" stroke-linecap="round" stroke-linejoin="round"/><rect x="76" y="420" width="38" height="30" rx="2" fill="rgba(216,220,230,1)" stroke="none" stroke-width="0.8" stroke-linecap="round" stroke-linejoin="round"/><rect x="76" y="420" width="38" height="30" rx="2" fill="none" stroke="rgba(134,155,168,0.49019607843137253)" stroke-width="0.8" stroke-linecap="round" stroke-linejoin="round"/><rect x="126" y="370" width="38" height="30" rx="2" fill="rgba(216,220,230,1)" stroke="none" stroke-width="0.8" stroke-linecap="round" stroke-linejoin="round"/><rect x="126" y="370" width="38" height="30" rx="2" fill="none" stroke="rgba(134,155,168,0.49019607843137253)" stroke-width="0.8" stroke-linecap="round" stroke-linejoin="round"/><rect x="176" y="370" width="38" height="30" rx="2" fill="rgba(216,220,230,1)" stroke="none" stroke-width="0.8" stroke-linecap="round" stroke-linejoin="round"/><rect x="176" y="370" width="38" height="30" rx="2" fill="none" stroke="rgba(134,155,168,0.49019607843137253)" stroke-width="0.8" stroke-linecap="round" stroke-linejoin="round"/><rect x="226" y="370" width="38" height="30" rx="2" fill="rgba(216,220,230,1)" stroke="none" stroke-width="0.8" stroke-linecap="round" stroke-linejoin="round"/><rect x="226" y="370" width="38" height="30" rx="2" fill="none" stroke="rgba(134,155,168,0.49019607843137253)" stroke-width="0.8" stroke-linecap="round" stroke-linejoin="round"/><rect x="176" y="470" width="38" height="30" rx="2" fill="rgba(216,220,230,1)" stroke="none" stroke-width="0.8" stroke-linecap="round" stroke-linejoin="round"/><rect x="176" y="470" width="38" height="30" rx="2" fill="none" stroke="rgba(134,155,168,0.49019607843137253)" stroke-width="0.8" stroke-linecap="round" stroke-linejoin="round"/><rect x="176" y="520" width="38" height="30" rx="2" fill="rgba(216,220,230,1)" stroke="none" stroke-width="0.8" stroke-linecap="round" stroke-linejoin="round"/><rect x="176" y="520" width="38" height="30" rx="2" fill="none" stroke="rgba(134,155,168,0.49019607843137253)" stroke-width="0.8" stroke-linecap="round" stroke-linejoin="round"/><rect x="226" y="470" width="38" height="30" rx="2" fill="rgba(216,220,230,1)" stroke="none" stroke-width="0.8" stroke-linecap="round" stroke-linejoin="round"/><rect x="226" y="470" width="38" height="30" rx="2" fill="none" stroke="rgba(134,155,168,0.49019607843137253)" stroke-width="0.8" stroke-linecap="round" stroke-linejoin="round"/><rect x="276" y="470" width="38" height="30" rx="2" fill="rgba(216,220,230,1)" stroke="none" stroke-width="0.8" stroke-linecap="round" stroke-linejoin="round"/><rect x="276" y="470" width="38" height="30" rx="2" fill="none" stroke="rgba(134,155,168,0.49019607843137253)" stroke-width="0.8" stroke-linecap="round" stroke-linejoin="round"/><rect x="15" y="155" width="50" height="12" rx="2" fill="rgba(199,190,163,1)" stroke="none" stroke-width="0.8" stroke-linecap="round" stroke-linejoin="round"/><rect x="18" y="156" width="44" height="9" rx="1" fill="rgba(240,223,189,1)" stroke="none" stroke-width="0.8" stroke-linecap="round" stroke-linejoin="round"/><path d="M33 156 L33 165 " fill="none" stroke="rgba(199,190,163,0.5882352941176471)" stroke-width="0.7" stroke-linecap="round" stroke-linejoin="round"/><path d="M48 156 L48 165 " fill="none" stroke="rgba(199,190,163,0.5882352941176471)" stroke-width="0.7" stroke-linecap="round" stroke-linejoin="round"/><rect x="15" y="555" width="50" height="12" rx="2" fill="rgba(199,190,163,1)" stroke="none" stroke-width="0.7" stroke-linecap="round" stroke-linejoin="round"/><rect x="18" y="556" width="44" height="9" rx="1" fill="rgba(240,223,189,1)" stroke="none" stroke-width="0.7" stroke-linecap="round" stroke-linejoin="round"/><path d="M33 556 L33 565 " fill="none" stroke="rgba(199,190,163,0.5882352941176471)" stroke-width="0.7" stroke-linecap="round" stroke-linejoin="round"/><path d="M48 556 L48 565 " fill="none" stroke="rgba(199,190,163,0.5882352941176471)" stroke-width="0.7" stroke-linecap="round" stroke-linejoin="round"/><path d="M78 140 L86 135 L78 130 " fill="none" stroke="rgba(155,121,84,0.7058823529411765)" stroke-width="3" stroke-linecap="round" stroke-linejoin="round"/></svg>