<svg xmlns="http://www.w3.org/2000/svg" width="780" height="1388" viewBox="0 0 390 694"><path d="M12 130 L204 130 " fill="none" stroke="rgba(198,173,142,0.37254901960784315)" stroke-width="0.7" stroke-linecap="butt" stroke-linejoin="miter"/><path d="M12 580 L378 580 " fill="none" stroke="rgba(198,173,142,0.37254901960784315)" stroke-width="0.7" stroke-linecap="butt" stroke-linejoin="miter"/><path d="M90 86 L90 150 " fill="none" stroke="rgba(198,173,142,0.37254901960784315)" stroke-width="0.7" stroke-linecap="butt" stroke-linejoin="miter"/><path d="M90 214 L90 254 " fill="none" stroke="rgba(198,173,142,0.37254901960784315)" stroke-width="0.7" stroke-linecap="butt" stroke-linejoin="miter"/><path d="M90 454 L90 598 " fill="none" stroke="rgba(198,173,142,0.37254901960784315)" stroke-width="0.7" stroke-linecap="butt" stroke-linejoin="miter"/><path d="M190 86 L190 150 " fill="none" stroke="rgba(198,173,142,0.37254901960784315)" stroke-width="0.7" stroke-linecap="butt" stroke-linejoin="miter"/><path d="M190 454 L190 598 " fill="none" stroke="rgba(198,173,142,0.37254901960784315)" stroke-width="0.7" stroke-linecap="butt" stroke-linejoin="miter"/><path d="M290 566 L290 598 " fill="none" stroke="rgba(198,173,142,0.37254901960784315)" stroke-width="0.7" stroke-linecap="butt" stroke-linejoin="miter"/><path d="M40 185 L337 185 Q345 185 345 193 L345 277 Q345 285 337 285 L53 285 Q45 285 45 293 L45 377 Q45 385 53 385 L287 385 Q295 385 295 393 L295 527 Q295 535 303 535 L350 535 " fill="none" stroke="rgba(197,168,134,1)" stroke-width="52" stroke-linecap="round" stroke-linejoin="round"/><path d="M40 185 L337 185 Q345 185 345 193 L345 277 Q345 285 337 285 L53 285 Q45 285 45 293 L45 377 Q45 385 53 385 L287 385 Q295 385 295 393 L295 527 Q295 535 303 535 L350 535 " fill="none" stroke="rgba(242,226,187,1)" stroke-width="49" stroke-linecap="round" stroke-linejoin="round"/><path d="M75 206 L75 164 " fill="none" stroke="rgba(196,181,155,0.5490196078431373)" stroke-width="0.8" stroke-linecap="round" stroke-linejoin="round"/><path d="M75 185 L113 185 " fill="none" stroke="rgba(196,181,155,0.5490196078431373)" stroke-width="0.8" stroke-linecap="round" stroke-linejoin="round"/><path d="M113 206 L113 164 " fill="none" stroke="rgba(196,181,155,0.5490196078431373)" stroke-width="0.8" stroke-linecap="round" stroke-linejoin="round"/><path d="M113 185 L151 185 " fill="none" stroke="rgba(196,181,155,0.5490196078431373)" stroke-width="0.8" stroke-linecap="round" stroke-linejoin="round"/><path d="M151 206 L151 164 " fill="none" stroke="rgba(196,181,155,0.5490196078431373)" stroke-width="0.8" stroke-linecap="round" stroke-linejoin="round"/><path d="M151 185 L189 185 " fill="none" stroke="rgba(196,181,155,0.5490196078431373)" stroke-width="0.8" stroke-linecap="round" stroke-linejoin="round"/><path d="M189 206 L189 164 " fill="none" stroke="rgba(196,181,155,0.5490196078431373)" stroke-width="0.8" stroke-linecap="round" stroke-linejoin="round"/><path d="M189 185 L227 185 " fill="none" stroke="rgba(196,181,155,0.5490196078431373)" stroke-width="0.8" stroke-linecap="round" stroke-linejoin="round"/><path d="M227 206 L227 164 " fill="none" stroke="rgba(196,181,155,0.5490196078431373)" stroke-width="0.8" stroke-linecap="round" stroke-linejoin="round"/><path d="M227 185 L265 185 " fill="none" stroke="rgba(196,181,155,0.5490196078431373)" stroke-width="0.8" stroke-linecap="round" stroke-linejoin="round"/><path d="M265 206 L265 164 " fill="none" stroke="rgba(196,181,155,0.5490196078431373)" stroke-width="0.8" stroke-linecap="round" stroke-linejoin="round"/><path d="M265 185 L303 185 " fill="none" stroke="rgba(196,181,155,0.5490196078431373)" stroke-width="0.8" stroke-linecap="round" stroke-linejoin="round"/><path d="M303 206 L303 164 " fill="none" stroke="rgba(196,181,155,0.5490196078431373)" stroke-width="0.8" stroke-linecap="round" stroke-linejoin="round"/><path d="M303 185 L317 185 " fill="none" stroke="rgba(196,181,155,0.5490196078431373)" stroke-width="0.8" stroke-linecap="round" stroke-linejoin="round"/><path d="M324 220 L366 220 " fill="none" stroke="rgba(196,181,155,0.5490196078431373)" stroke-width="0.8" stroke-linecap="round" stroke-linejoin="round"/><path d="M345 220 L345 257 " fill="none" stroke="rgba(196,181,155,0.5490196078431373)" stroke-width="0.8" stroke-linecap="round" stroke-linejoin="round"/><path d="M310 264 L310 306 " fill="none" stroke="rgba(196,181,155,0.5490196078431373)" stroke-width="0.8" stroke-linecap="round" stroke-linejoin="round"/><path d="M310 285 L272 285 " fill="none" stroke="rgba(196,181,155,0.5490196078431373)" stroke-width="0.8" stroke-linecap="round" stroke-linejoin="round"/><path d="M272 264 L272 306 " fill="none" stroke="rgba(196,181,155,0.5490196078431373)" stroke-width="0.8" stroke-linecap="round" stroke-linejoin="round"/><path d="M272 285 L234 285 " fill="none" stroke="rgba(196,181,155,0.5490196078431373)" stroke-width="0.8" stroke-linecap="round" stroke-linejoin="round"/><path d="M234 264 L234 306 " fill="none" stroke="rgba(196,181,155,0.5490196078431373)" stroke-width="0.8" stroke-linecap="round" stroke-linejoin="round"/><path d="M234 285 L196 285 " fill="none" stroke="rgba(196,181,155,0.5490196078431373)" stroke-width="0.8" stroke-linecap="round" stroke-linejoin="round"/><path d="M196 264 L196 306 " fill="none" stroke="rgba(196,181,155,0.5490196078431373)" stroke-width="0.8" stroke-linecap="round" stroke-linejoin="round"/><path d="M196 285 L158 285 " fill="none" stroke="rgba(196,181,155,0.5490196078431373)" stroke-width="0.8" stroke-linecap="round" stroke-linejoin="round"/><path d="M158 264 L158 306 " fill="none" stroke="rgba(196,181,155,0.5490196078431373)" stroke-width="0.8" stroke-linecap="round" stroke-linejoin="round"/><path d="M158 285 L120 285 " fill="none" stroke="rgba(196,181,155,0.5490196078431373)" stroke-width="0.8" stroke-linecap="round" stroke-linejoin="round"/><path d="M120 264 L120 306 " fill="none" stroke="rgba(196,181,155,0.5490196078431373)" stroke-width="0.8" stroke-linecap="round" stroke-linejoin="round"/><path d="M120 285 L82 285 " fill="none" stroke="rgba(196,181,155,0.5490196078431373)" stroke-width="0.8" stroke-linecap="round" stroke-linejoin="round"/><path d="M82 264 L82 306 " fill="none" stroke="rgba(196,181,155,0.5490196078431373)" stroke-width="0.8" stroke-linecap="round" stroke-linejoin="round"/><path d="M82 285 L73 285 " fill="none" stroke="rgba(196,181,155,0.5490196078431373)" stroke-width="0.8" stroke-linecap="round" stroke-linejoin="round"/><path d="M24 320 L66 320 " fill="none" stroke="rgba(196,181,155,0.5490196078431373)" stroke-width="0.8" stroke-linecap="round" stroke-linejoin="round"/><path d="M45 320 L45 357 " fill="none" stroke="rgba(196,181,155,0.5490196078431373)" stroke-width="0.8" stroke-linecap="round" stroke-linejoin="round"/><path d="M80 406 L80 364 " fill="none" stroke="rgba(196,181,155,0.5490196078431373)" stroke-width="0.8" stroke-linecap="round" stroke-linejoin="round"/><path d="M80 385 L118 385 " fill="none" stroke="rgba(196,181,155,0.5490196078431373)" stroke-width="0.8" stroke-linecap="round" stroke-linejoin="round"/><path d="M118 406 L118 364 " fill="none" stroke="rgba(196,181,155,0.5490196078431373)" stroke-width="0.8" stroke-linecap="round" stroke-linejoin="round"/><path d="M118 385 L156 385 " fill="none" stroke="rgba(196,181,155,0.5490196078431373)" stroke-width="0.8" stroke-linecap="round" stroke-linejoin="round"/><path d="M156 406 L156 364 " fill="none" stroke="rgba(196,181,155,0.5490196078431373)" stroke-width="0.8" stroke-linecap="round" stroke-linejoin="round"/><path d="M156 385 L194 385 " fill="none" stroke="rgba(196,181,155,0.5490196078431373)" stroke-width="0.8" stroke-linecap="round" stroke-linejoin="round"/><path d="M194 406 L194 364 " fill="none" stroke="rgba(196,181,155,0.5490196078431373)" stroke-width="0.8" stroke-linecap="round" stroke-linejoin="round"/><path d="M194 385 L232 385 " fill="none" stroke="rgba(196,181,155,0.5490196078431373)" stroke-width="0.8" stroke-linecap="round" stroke-linejoin="round"/><path d="M232 406 L232 364 " fill="none" stroke="rgba(196,181,155,0.5490196078431373)" stroke-width="0.8" stroke-linecap="round" stroke-linejoin="round"/><path d="M232 385 L267 385 " fill="none" stroke="rgba(196,181,155,0.5490196078431373)" stroke-width="0.8" stroke-linecap="round" stroke-linejoin="round"/><path d="M274 420 L316 420 " fill="none" stroke="rgba(196,181,155,0.5490196078431373)" stroke-width="0.8" stroke-linecap="round" stroke-linejoin="round"/><path d="M295 420 L295 458 " fill="none" stroke="rgba(196,181,155,0.5490196078431373)" stroke-width="0.8" stroke-linecap="round" stroke-linejoin="round"/><path d="M274 458 L316 458 " fill="none" stroke="rgba(196,181,155,0.5490196078431373)" stroke-width="0.8" stroke-linecap="round" stroke-linejoin="round"/><path d="M295 458 L295 496 " fill="none" stroke="rgba(196,181,155,0.5490196078431373)" stroke-width="0.8" stroke-linecap="round" stroke-linejoin="round"/><path d="M274 496 L316 496 " fill="none" stroke="rgba(196,181,155,0.5490196078431373)" stroke-width="0.8" stroke-linecap="round" stroke-linejoin="round"/><path d="M295 496 L295 507 " fill="none" stroke="rgba(196,181,155,0.5490196078431373)" stroke-width="0.8" stroke-linecap="round" stroke-linejoin="round"/><rect x="124" y="218" width="92" height="34" rx="4" fill="rgba(206,208,169,1)" stroke="none" stroke-width="0.8" stroke-linecap="round" stroke-linejoin="round"/><rect x="174" y="218" width="92" height="34" rx="4" fill="rgba(206,208,169,1)" stroke="none" stroke-width="0.8" stroke-linecap="round" stroke-linejoin="round"/><rect x="224" y="218" width="92" height="34" rx="4" fill="rgba(206,208,169,1)" stroke="none" stroke-width="0.8" stroke-linecap="round" stroke-linejoin="round"/><rect x="224" y="118" width="92" height="34" rx="4" fill="rgba(206,208,169,1)" stroke="none" stroke-width="0.8" stroke-linecap="round" stroke-linejoin="round"/><rect x="274" y="118" width="92" height="34" rx="4" fill="rgba(206,208,169,1)" stroke="none" stroke-width="0.8" stroke-linecap="round" stroke-linejoin="round"/><rect x="74" y="318" width="92" height="34" rx="4" fill="rgba(206,208,169,1)" stroke="none" stroke-width="0.8" stroke-linecap="round" stroke-linejoin="round"/><rect x="124" y="318" width="92" height="34" rx="4" fill="rgba(206,208,169,1)" stroke="none" stroke-width="0.8" stroke-linecap="round" stroke-linejoin="round"/><rect x="174" y="318" width="92" height="34" rx="4" fill="rgba(206,208,169,1)" stroke="none" stroke-width="0.8" stroke-linecap="round" stroke-linejoin="round"/><rect x="224" y="318" width="92" height="34" rx="4" fill="rgba(206,208,169,1)" stroke="none" stroke-width="0.8" stroke-linecap="round" stroke-linejoin="round"/><rect x="274" y="318" width="92" height="34" rx="4" fill="rgba(206,208,169,1)" stroke="none" stroke-width="0.8" stroke-linecap="round" stroke-linejoin="round"/><rect x="324" y="318" width="42" height="84" rx="4" fill="rgba(206,208,169,1)" stroke="none" stroke-width="0.8" stroke-linecap="round" stroke-linejoin="round"/><rect x="74" y="418" width="92" height="34" rx="4" fill="rgba(206,208,169,1)" stroke="none" stroke-width="0.8" stroke-linecap="round" stroke-linejoin="round"/><rect x="24" y="418" width="92" height="34" rx="4" fill="rgba(206,208,169,1)" stroke="none" stroke-width="0.8" stroke-linecap="round" stroke-linejoin="round"/><rect x="124" y="418" width="92" height="34" rx="4" fill="rgba(206,208,169,1)" stroke="none" stroke-width="0.8" stroke-linecap="round" stroke-linejoin="round"/><rect x="174" y="418" width="92" height="34" rx="4" fill="rgba(206,208,169,1)" stroke="none" stroke-width="0.8" stroke-linecap="round" stroke-linejoin="round"/><rect x="324" y="368" width="42" height="84" rx="4" fill="rgba(206,208,169,1)" stroke="none" stroke-width="0.8" stroke-linecap="round" stroke-linejoin="round"/><rect x="224" y="418" width="42" height="84" rx="4" fill="rgba(206,208,169,1)" stroke="none" stroke-width="0.8" stroke-linecap="round" stroke-linejoin="round"/><rect x="224" y="468" width="42" height="84" rx="4" fill="rgba(206,208,169,1)" stroke="none" stroke-width="0.8" stroke-linecap="round" stroke-linejoin="round"/><rect x="124" y="218" width="42" height="34" rx="4" fill="rgba(206,208,169,1)" stroke="none" stroke-width="0.8" stroke-linecap="round" stroke-linejoin="round"/><rect x="174" y="218" width="42" height="34" rx="4" fill="rgba(206,208,169,1)" stroke="none" stroke-width="0.8" stroke-linecap="round" stroke-linejoin="round"/><rect x="224" y="218" width="42" height="34" rx="4" fill="rgba(206,208,169,1)" stroke="none" stroke-width="0.8" stroke-linecap="round" stroke-linejoin="round"/><rect x="274" y="218" width="42" height="34" rx="4" fill="rgba(206,208,169,1)" stroke="none" stroke-width="0.8" stroke-linecap="round" stroke-linejoin="round"/><rect x="274" y="118" width="42" height="34" rx="4" fill="rgba(206,208,169,1)" stroke="none" stroke-width="0.8" stroke-linecap="round" stroke-linejoin="round"/><rect x="74" y="318" width="42" height="34" rx="4" fill="rgba(206,208,169,1)" stroke="none" stroke-width="0.8" stroke-linecap="round" stroke-linejoin="round"/><rect x="124" y="318" width="42" height="34" rx="4" fill="rgba(206,208,169,1)" stroke="none" stroke-width="0.8" stroke-linecap="round" stroke-linejoin="round"/><rect x="174" y="318" width="42" height="34" rx="4" fill="rgba(206,208,169,1)" stroke="none" stroke-width="0.8" stroke-linecap="round" stroke-linejoin="round"/><rect x="224" y="318" width="42" height="34" rx="4" fill="rgba(206,208,169,1)" stroke="none" stroke-width="0.8" stroke-linecap="round" stroke-linejoin="round"/><rect x="274" y="318" width="42" height="34" rx="4" fill="rgba(206,208,169,1)" stroke="none" stroke-width="0.8" stroke-linecap="round" stroke-linejoin="round"/><rect x="324" y="318" width="42" height="34" rx="4" fill="rgba(206,208,169,1)" stroke="none" stroke-width="0.8" stroke-linecap="round" stroke-linejoin="round"/><rect x="74" y="418" width="42" height="34" rx="4" fill="rgba(206,208,169,1)" stroke="none" stroke-width="0.8" stroke-linecap="round" stroke-linejoin="round"/><rect x="124" y="418" width="42" height="34" rx="4" fill="rgba(206,208,169,1)" stroke="none" stroke-width="0.8" stroke-linecap="round" stroke-linejoin="round"/><rect x="174" y="418" width="42" height="34" rx="4" fill="rgba(206,208,169,1)" stroke="none" stroke-width="0.8" stroke-linecap="round" stroke-linejoin="round"/><rect x="324" y="368" width="42" height="34" rx="4" fill="rgba(206,208,169,1)" stroke="none" stroke-width="0.8" stroke-linecap="round" stroke-linejoin="round"/><rect x="324" y="418" width="42" height="34" rx="4" fill="rgba(206,208,169,1)" stroke="none" stroke-width="0.8" stroke-linecap="round" stroke-linejoin="round"/><rect x="224" y="468" width="42" height="34" rx="4" fill="rgba(206,208,169,1)" stroke="none" stroke-width="0.8" stroke-linecap="round" stroke-linejoin="round"/><rect x="24" y="418" width="42" height="34" rx="4" fill="rgba(206,208,169,1)" stroke="none" stroke-width="0.8" stroke-linecap="round" stroke-linejoin="round"/><rect x="224" y="418" width="42" height="34" rx="4" fill="rgba(206,208,169,1)" stroke="none" stroke-width="0.8" stroke-linecap="round" stroke-linejoin="round"/><rect x="224" y="518" width="42" height="34" rx="4" fill="rgba(206,208,169,1)" stroke="none" stroke-width="0.8" stroke-linecap="round" stroke-linejoin="round"/><rect x="224" y="118" width="42" height="34" rx="4" fill="rgba(206,208,169,1)" stroke="none" stroke-width="0.8" stroke-linecap="round" stroke-linejoin="round"/><rect x="324" y="118" width="42" height="34" rx="4" fill="rgba(206,208,169,1)" stroke="none" stroke-width="0.8" stroke-linecap="round" stroke-linejoin="round"/><rect x="126" y="220" width="38" height="30" rx="2" fill="rgba(230,221,188,1)" stroke="none" stroke-width="0.8" stroke-linecap="round" stroke-linejoin="round"/><rect x="126" y="220" width="38" height="30" rx="2" fill="none" stroke="rgba(166,161,111,0.49019607843137253)" stroke-width="0.8" stroke-linecap="round" stroke-linejoin="round"/><rect x="176" y="220" width="38" height="30" rx="2" fill="rgba(230,221,188,1)" stroke="none" stroke-width="0.8" stroke-linecap="round" stroke-linejoin="round"/><rect x="176" y="220" width="38" height="30" rx="2" fill="none" stroke="rgba(166,161,111,0.49019607843137253)" stroke-width="0.8" stroke-linecap="round" stroke-linejoin="round"/><rect x="226" y="220" width="38" height="30" rx="2" fill="rgba(230,221,188,1)" stroke="none" stroke-width="0.8" stroke-linecap="round" stroke-linejoin="round"/><rect x="226" y="220" width="38" height="30" rx="2" fill="none" stroke="rgba(166,161,111,0.49019607843137253)" stroke-width="0.8" stroke-linecap="round" stroke-linejoin="round"/><rect x="276" y="220" width="38" height="30" rx="2" fill="rgba(230,221,188,1)" stroke="none" stroke-width="0.8" stroke-linecap="round" stroke-linejoin="round"/><rect x="276" y="220" width="38" height="30" rx="2" fill="none" stroke="rgba(166,161,111,0.49019607843137253)" stroke-width="0.8" stroke-linecap="round" stroke-linejoin="round"/><rect x="276" y="120" width="38" height="30" rx="2" fill="rgba(230,221,188,1)" stroke="none" stroke-width="0.8" stroke-linecap="round" stroke-linejoin="round"/><rect x="276" y="120" width="38" height="30" rx="2" fill="none" stroke="rgba(166,161,111,0.49019607843137253)" stroke-width="0.8" stroke-linecap="round" stroke-linejoin="round"/><rect x="76" y="320" width="38" height="30" rx="2" fill="rgba(230,221,188,1)" stroke="none" stroke-width="0.8" stroke-linecap="round" stroke-linejoin="round"/><rect x="76" y="320" width="38" height="30" rx="2" fill="none" stroke="rgba(166,161,111,0.49019607843137253)" stroke-width="0.8" stroke-linecap="round" stroke-linejoin="round"/><rect x="126" y="320" width="38" height="30" rx="2" fill="rgba(230,221,188,1)" stroke="none" stroke-width="0.8" stroke-linecap="round" stroke-linejoin="round"/><rect x="126" y="320" width="38" height="30" rx="2" fill="none" stroke="rgba(166,161,111,0.49019607843137253)" stroke-width="0.8" stroke-linecap="round" stroke-linejoin="round"/><rect x="176" y="320" width="38" height="30" rx="2" fill="rgba(230,221,188,1)" stroke="none" stroke-width="0.8" stroke-linecap="round" stroke-linejoin="round"/><rect x="176" y="320" width="38" height="30" rx="2" fill="none" stroke="rgba(166,161,111,0.49019607843137253)" stroke-width="0.8" stroke-linecap="round" stroke-linejoin="round"/><rect x="226" y="320" width="38" height="30" rx="2" fill="rgba(230,221,188,1)" stroke="none" stroke-width="0.8" stroke-linecap="round" stroke-linejoin="round"/><rect x="226" y="320" width="38" height="30" rx="2" fill="none" stroke="rgba(166,161,111,0.49019607843137253)" stroke-width="0.8" stroke-linecap="round" stroke-linejoin="round"/><rect x="276" y="320" width="38" height="30" rx="2" fill="rgba(230,221,188,1)" stroke="none" stroke-width="0.8" stroke-linecap="round" stroke-linejoin="round"/><rect x="276" y="320" width="38" height="30" rx="2" fill="none" stroke="rgba(166,161,111,0.49019607843137253)" stroke-width="0.8" stroke-linecap="round" stroke-linejoin="round"/><rect x="326" y="320" width="38" height="30" rx="2" fill="rgba(230,221,188,1)" stroke="none" stroke-width="0.8" stroke-linecap="round" stroke-linejoin="round"/><rect x="326" y="320" width="38" height="30" rx="2" fill="none" stroke="rgba(166,161,111,0.49019607843137253)" stroke-width="0.8" stroke-linecap="round" stroke-linejoin="round"/><rect x="76" y="420" width="38" height="30" rx="2" fill="rgba(230,221,188,1)" stroke="none" stroke-width="0.8" stroke-linecap="round" stroke-linejoin="round"/><rect x="76" y="420" width="38" height="30" rx="2" fill="none" stroke="rgba(166,161,111,0.49019607843137253)" stroke-width="0.8" stroke-linecap="round" stroke-linejoin="round"/><rect x="126" y="420" width="38" height="30" rx="2" fill="rgba(230,221,188,1)" stroke="none" stroke-width="0.8" stroke-linecap="round" stroke-linejoin="round"/><rect x="126" y="420" width="38" height="30" rx="2" fill="none" stroke="rgba(166,161,111,0.49019607843137253)" stroke-width="0.8" stroke-linecap="round" stroke-linejoin="round"/><rect x="176" y="420" width="38" height="30" rx="2" fill="rgba(230,221,188,1)" stroke="none" stroke-width="0.8" stroke-linecap="round" stroke-linejoin="round"/><rect x="176" y="420" width="38" height="30" rx="2" fill="none" stroke="rgba(166,161,111,0.49019607843137253)" stroke-width="0.8" stroke-linecap="round" stroke-linejoin="round"/><rect x="326" y="370" width="38" height="30" rx="2" fill="rgba(230,221,188,1)" stroke="none" stroke-width="0.8" stroke-linecap="round" stroke-linejoin="round"/><rect x="326" y="370" width="38" height="30" rx="2" fill="none" stroke="rgba(166,161,111,0.49019607843137253)" stroke-width="0.8" stroke-linecap="round" stroke-linejoin="round"/><rect x="326" y="420" width="38" height="30" rx="2" fill="rgba(230,221,188,1)" stroke="none" stroke-width="0.8" stroke-linecap="round" stroke-linejoin="round"/><rect x="326" y="420" width="38" height="30" rx="2" fill="none" stroke="rgba(166,161,111,0.49019607843137253)" stroke-width="0.8" stroke-linecap="round" stroke-linejoin="round"/><rect x="226" y="470" width="38" height="30" rx="2" fill="rgba(230,221,188,1)" stroke="none" stroke-width="0.8" stroke-linecap="round" stroke-linejoin="round"/><rect x="226" y="470" width="38" height="30" rx="2" fill="none" stroke="rgba(166,161,111,0.49019607843137253)" stroke-width="0.8" stroke-linecap="round" stroke-linejoin="round"/><rect x="26" y="420" width="38" height="30" rx="2" fill="rgba(230,221,188,1)" stroke="none" stroke-width="0.8" stroke-linecap="round" stroke-linejoin="round"/><rect x="26" y="420" width="38" height="30" rx="2" fill="none" stroke="rgba(166,161,111,0.49019607843137253)" stroke-width="0.8" stroke-linecap="round" stroke-linejoin="round"/><rect x="226" y="420" width="38" height="30" rx="2" fill="rgba(230,221,188,1)" stroke="none" stroke-width="0.8" stroke-linecap="round" stroke-linejoin="round"/><rect x="226" y="420" width="38" height="30" rx="2" fill="none" stroke="rgba(166,161,111,0.49019607843137253)" stroke-width="0.8" stroke-linecap="round" stroke-linejoin="round"/><rect x="226" y="520" width="38" height="30" rx="2" fill="rgba(230,221,188,1)" stroke="none" stroke-width="0.8" stroke-linecap="round" stroke-linejoin="round"/><rect x="226" y="520" width="38" height="30" rx="2" fill="none" stroke="rgba(166,161,111,0.49019607843137253)" stroke-width="0.8" stroke-linecap="round" stroke-linejoin="round"/><rect x="226" y="120" width="38" height="30" rx="2" fill="rgba(230,221,188,1)" stroke="none" stroke-width="0.8" stroke-linecap="round" stroke-linejoin="round"/><rect x="226" y="120" width="38" height="30" rx="2" fill="none" stroke="rgba(166,161,111,0.49019607843137253)" stroke-width="0.8" stroke-linecap="round" stroke-linejoin="round"/><rect x="326" y="120" width="38" height="30" rx="2" fill="rgba(230,221,188,1)" stroke="none" stroke-width="0.8" stroke-linecap="round" stroke-linejoin="round"/><rect x="326" y="120" width="38" height="30" rx="2" fill="none" stroke="rgba(166,161,111,0.49019607843137253)" stroke-width="0.8" stroke-linecap="round" stroke-linejoin="round"/><rect x="15" y="205" width="50" height="12" rx="2" fill="rgba(199,190,163,1)" stroke="none" stroke-width="0.8" stroke-linecap="round" stroke-linejoin="round"/><rect x="18" y="206" width="44" height="9" rx="1" fill="rgba(240,223,189,1)" stroke="none" stroke-width="0.8" stroke-linecap="round" stroke-linejoin="round"/><path d="M33 206 L33 215 " fill="none" stroke="rgba(199,190,163,0.5882352941176471)" stroke-width="0.7" stroke-linecap="round" stroke-linejoin="round"/><path d="M48 206 L48 215 " fill="none" stroke="rgba(199,190,163,0.5882352941176471)" stroke-width="0.7" stroke-linecap="round" stroke-linejoin="round"/><rect x="325" y="555" width="50" height="12" rx="2" fill="rgba(199,190,163,1)" stroke="none" stroke-width="0.7" stroke-linecap="round" stroke-linejoin="round"/><rect x="328" y="556" width="44" height="9" rx="1" fill="rgba(240,223,189,1)" stroke="none" stroke-width="0.7" stroke-linecap="round" stroke-linejoin="round"/><path d="M343 556 L343 565 " fill="none" stroke="rgba(199,190,163,0.5882352941176471)" stroke-width="0.7" stroke-linecap="round" stroke-linejoin="round"/><path d="M358 556 L358 565 " fill="none" stroke="rgba(199,190,163,0.5882352941176471)" stroke-width="0.7" stroke-linecap="round" stroke-linejoin="round"/><path d="M78 190 L86 185 L78 180 " fill="none" stroke="rgba(155,121,84,0.7058823529411765)" stroke-width="3" stroke-linecap="round" stroke-linejoin="round"/></svg>