<svg xmlns="http://www.w3.org/2000/svg" width="780" height="1388" viewBox="0 0 390 694"><path d="M12 230 L60 230 " fill="none" stroke="rgba(114,199,181,0.37254901960784315)" stroke-width="0.7" stroke-linecap="butt" stroke-linejoin="miter"/><path d="M12 330 L60 330 " fill="none" stroke="rgba(114,199,181,0.37254901960784315)" stroke-width="0.7" stroke-linecap="butt" stroke-linejoin="miter"/><path d="M324 330 L378 330 " fill="none" stroke="rgba(114,199,181,0.37254901960784315)" stroke-width="0.7" stroke-linecap="butt" stroke-linejoin="miter"/><path d="M324 430 L378 430 " fill="none" stroke="rgba(114,199,181,0.37254901960784315)" stroke-width="0.7" stroke-linecap="butt" stroke-linejoin="miter"/><path d="M90 86 L90 102 " fill="none" stroke="rgba(114,199,181,0.37254901960784315)" stroke-width="0.7" stroke-linecap="butt" stroke-linejoin="miter"/><path d="M90 566 L90 598 " fill="none" stroke="rgba(114,199,181,0.37254901960784315)" stroke-width="0.7" stroke-linecap="butt" stroke-linejoin="miter"/><path d="M190 86 L190 102 " fill="none" stroke="rgba(114,199,181,0.37254901960784315)" stroke-width="0.7" stroke-linecap="butt" stroke-linejoin="miter"/><path d="M190 566 L190 598 " fill="none" stroke="rgba(114,199,181,0.37254901960784315)" stroke-width="0.7" stroke-linecap="butt" stroke-linejoin="miter"/><path d="M290 86 L290 102 " fill="none" stroke="rgba(114,199,181,0.37254901960784315)" stroke-width="0.7" stroke-linecap="butt" stroke-linejoin="miter"/><path d="M290 566 L290 598 " fill="none" stroke="rgba(114,199,181,0.37254901960784315)" stroke-width="0.7" stroke-linecap="butt" stroke-linejoin="miter"/><path d="M40 135 L87 135 Q95 135 95 143 L95 527 Q95 535 103 535 L187 535 Q195 535 195 527 L195 143 Q195 135 203 135 L287 135 Q295 135 295 143 L295 527 Q295 535 303 535 L350 535 " fill="none" stroke="rgba(186,156,136,1)" stroke-width="52" stroke-linecap="round" stroke-linejoin="round"/><path d="M40 135 L87 135 Q95 135 95 143 L95 527 Q95 535 103 535 L187 535 Q195 535 195 527 L195 143 Q195 135 203 135 L287 135 Q295 135 295 143 L295 527 Q295 535 303 535 L350 535 " fill="none" stroke="rgba(255,244,223,1)" stroke-width="49" stroke-linecap="round" stroke-linejoin="round"/><path d="M74 170 L116 170 " fill="none" stroke="rgba(196,181,155,0.5490196078431373)" stroke-width="0.8" stroke-linecap="round" stroke-linejoin="round"/><path d="M95 170 L95 208 " fill="none" stroke="rgba(196,181,155,0.5490196078431373)" stroke-width="0.8" stroke-linecap="round" stroke-linejoin="round"/><path d="M74 208 L116 208 " fill="none" stroke="rgba(196,181,155,0.5490196078431373)" stroke-width="0.8" stroke-linecap="round" stroke-linejoin="round"/><path d="M95 208 L95 246 " fill="none" stroke="rgba(196,181,155,0.5490196078431373)" stroke-width="0.8" stroke-linecap="round" stroke-linejoin="round"/><path d="M74 246 L116 246 " fill="none" stroke="rgba(196,181,155,0.5490196078431373)" stroke-width="0.8" stroke-linecap="round" stroke-linejoin="round"/><path d="M95 246 L95 284 " fill="none" stroke="rgba(196,181,155,0.5490196078431373)" stroke-width="0.8" stroke-linecap="round" stroke-linejoin="round"/><path d="M74 284 L116 284 " fill="none" stroke="rgba(196,181,155,0.5490196078431373)" stroke-width="0.8" stroke-linecap="round" stroke-linejoin="round"/><path d="M95 284 L95 322 " fill="none" stroke="rgba(196,181,155,0.5490196078431373)" stroke-width="0.8" stroke-linecap="round" stroke-linejoin="round"/><path d="M74 322 L116 322 " fill="none" stroke="rgba(196,181,155,0.5490196078431373)" stroke-width="0.8" stroke-linecap="round" stroke-linejoin="round"/><path d="M95 322 L95 360 " fill="none" stroke="rgba(196,181,155,0.5490196078431373)" stroke-width="0.8" stroke-linecap="round" stroke-linejoin="round"/><path d="M74 360 L116 360 " fill="none" stroke="rgba(196,181,155,0.5490196078431373)" stroke-width="0.8" stroke-linecap="round" stroke-linejoin="round"/><path d="M95 360 L95 398 " fill="none" stroke="rgba(196,181,155,0.5490196078431373)" stroke-width="0.8" stroke-linecap="round" stroke-linejoin="round"/><path d="M74 398 L116 398 " fill="none" stroke="rgba(196,181,155,0.5490196078431373)" stroke-width="0.8" stroke-linecap="round" stroke-linejoin="round"/><path d="M95 398 L95 436 " fill="none" stroke="rgba(196,181,155,0.5490196078431373)" stroke-width="0.8" stroke-linecap="round" stroke-linejoin="round"/><path d="M74 436 L116 436 " fill="none" stroke="rgba(196,181,155,0.5490196078431373)" stroke-width="0.8" stroke-linecap="round" stroke-linejoin="round"/><path d="M95 436 L95 474 " fill="none" stroke="rgba(196,181,155,0.5490196078431373)" stroke-width="0.8" stroke-linecap="round" stroke-linejoin="round"/><path d="M74 474 L116 474 " fill="none" stroke="rgba(196,181,155,0.5490196078431373)" stroke-width="0.8" stroke-linecap="round" stroke-linejoin="round"/><path d="M95 474 L95 507 " fill="none" stroke="rgba(196,181,155,0.5490196078431373)" stroke-width="0.8" stroke-linecap="round" stroke-linejoin="round"/><path d="M130 556 L130 514 " fill="none" stroke="rgba(196,181,155,0.5490196078431373)" stroke-width="0.8" stroke-linecap="round" stroke-linejoin="round"/><path d="M130 535 L167 535 " fill="none" stroke="rgba(196,181,155,0.5490196078431373)" stroke-width="0.8" stroke-linecap="round" stroke-linejoin="round"/><path d="M216 500 L174 500 " fill="none" stroke="rgba(196,181,155,0.5490196078431373)" stroke-width="0.8" stroke-linecap="round" stroke-linejoin="round"/><path d="M195 500 L195 462 " fill="none" stroke="rgba(196,181,155,0.5490196078431373)" stroke-width="0.8" stroke-linecap="round" stroke-linejoin="round"/><path d="M216 462 L174 462 " fill="none" stroke="rgba(196,181,155,0.5490196078431373)" stroke-width="0.8" stroke-linecap="round" stroke-linejoin="round"/><path d="M195 462 L195 424 " fill="none" stroke="rgba(196,181,155,0.5490196078431373)" stroke-width="0.8" stroke-linecap="round" stroke-linejoin="round"/><path d="M216 424 L174 424 " fill="none" stroke="rgba(196,181,155,0.5490196078431373)" stroke-width="0.8" stroke-linecap="round" stroke-linejoin="round"/><path d="M195 424 L195 386 " fill="none" stroke="rgba(196,181,155,0.5490196078431373)" stroke-width="0.8" stroke-linecap="round" stroke-linejoin="round"/><path d="M216 386 L174 386 " fill="none" stroke="rgba(196,181,155,0.5490196078431373)" stroke-width="0.8" stroke-linecap="round" stroke-linejoin="round"/><path d="M195 386 L195 348 " fill="none" stroke="rgba(196,181,155,0.5490196078431373)" stroke-width="0.8" stroke-linecap="round" stroke-linejoin="round"/><path d="M216 348 L174 348 " fill="none" stroke="rgba(196,181,155,0.5490196078431373)" stroke-width="0.8" stroke-linecap="round" stroke-linejoin="round"/><path d="M195 348 L195 310 " fill="none" stroke="rgba(196,181,155,0.5490196078431373)" stroke-width="0.8" stroke-linecap="round" stroke-linejoin="round"/><path d="M216 310 L174 310 " fill="none" stroke="rgba(196,181,155,0.5490196078431373)" stroke-width="0.8" stroke-linecap="round" stroke-linejoin="round"/><path d="M195 310 L195 272 " fill="none" stroke="rgba(196,181,155,0.5490196078431373)" stroke-width="0.8" stroke-linecap="round" stroke-linejoin="round"/><path d="M216 272 L174 272 " fill="none" stroke="rgba(196,181,155,0.5490196078431373)" stroke-width="0.8" stroke-linecap="round" stroke-linejoin="round"/><path d="M195 272 L195 234 " fill="none" stroke="rgba(196,181,155,0.5490196078431373)" stroke-width="0.8" stroke-linecap="round" stroke-linejoin="round"/><path d="M216 234 L174 234 " fill="none" stroke="rgba(196,181,155,0.5490196078431373)" stroke-width="0.8" stroke-linecap="round" stroke-linejoin="round"/><path d="M195 234 L195 196 " fill="none" stroke="rgba(196,181,155,0.5490196078431373)" stroke-width="0.8" stroke-linecap="round" stroke-linejoin="round"/><path d="M216 196 L174 196 " fill="none" stroke="rgba(196,181,155,0.5490196078431373)" stroke-width="0.8" stroke-linecap="round" stroke-linejoin="round"/><path d="M195 196 L195 163 " fill="none" stroke="rgba(196,181,155,0.5490196078431373)" stroke-width="0.8" stroke-linecap="round" stroke-linejoin="round"/><path d="M230 156 L230 114 " fill="none" stroke="rgba(196,181,155,0.5490196078431373)" stroke-width="0.8" stroke-linecap="round" stroke-linejoin="round"/><path d="M230 135 L267 135 " fill="none" stroke="rgba(196,181,155,0.5490196078431373)" stroke-width="0.8" stroke-linecap="round" stroke-linejoin="round"/><path d="M274 170 L316 170 " fill="none" stroke="rgba(196,181,155,0.5490196078431373)" stroke-width="0.8" stroke-linecap="round" stroke-linejoin="round"/><path d="M295 170 L295 208 " fill="none" stroke="rgba(196,181,155,0.5490196078431373)" stroke-width="0.8" stroke-linecap="round" stroke-linejoin="round"/><path d="M274 208 L316 208 " fill="none" stroke="rgba(196,181,155,0.5490196078431373)" stroke-width="0.8" stroke-linecap="round" stroke-linejoin="round"/><path d="M295 208 L295 246 " fill="none" stroke="rgba(196,181,155,0.5490196078431373)" stroke-width="0.8" stroke-linecap="round" stroke-linejoin="round"/><path d="M274 246 L316 246 " fill="none" stroke="rgba(196,181,155,0.5490196078431373)" stroke-width="0.8" stroke-linecap="round" stroke-linejoin="round"/><path d="M295 246 L295 284 " fill="none" stroke="rgba(196,181,155,0.5490196078431373)" stroke-width="0.8" stroke-linecap="round" stroke-linejoin="round"/><path d="M274 284 L316 284 " fill="none" stroke="rgba(196,181,155,0.5490196078431373)" stroke-width="0.8" stroke-linecap="round" stroke-linejoin="round"/><path d="M295 284 L295 322 " fill="none" stroke="rgba(196,181,155,0.5490196078431373)" stroke-width="0.8" stroke-linecap="round" stroke-linejoin="round"/><path d="M274 322 L316 322 " fill="none" stroke="rgba(196,181,155,0.5490196078431373)" stroke-width="0.8" stroke-linecap="round" stroke-linejoin="round"/><path d="M295 322 L295 360 " fill="none" stroke="rgba(196,181,155,0.5490196078431373)" stroke-width="0.8" stroke-linecap="round" stroke-linejoin="round"/><path d="M274 360 L316 360 " fill="none" stroke="rgba(196,181,155,0.5490196078431373)" stroke-width="0.8" stroke-linecap="round" stroke-linejoin="round"/><path d="M295 360 L295 398 " fill="none" stroke="rgba(196,181,155,0.5490196078431373)" stroke-width="0.8" stroke-linecap="round" stroke-linejoin="round"/><path d="M274 398 L316 398 " fill="none" stroke="rgba(196,181,155,0.5490196078431373)" stroke-width="0.8" stroke-linecap="round" stroke-linejoin="round"/><path d="M295 398 L295 436 " fill="none" stroke="rgba(196,181,155,0.5490196078431373)" stroke-width="0.8" stroke-linecap="round" stroke-linejoin="round"/><path d="M274 436 L316 436 " fill="none" stroke="rgba(196,181,155,0.5490196078431373)" stroke-width="0.8" stroke-linecap="round" stroke-linejoin="round"/><path d="M295 436 L295 474 " fill="none" stroke="rgba(196,181,155,0.5490196078431373)" stroke-width="0.8" stroke-linecap="round" stroke-linejoin="round"/><path d="M274 474 L316 474 " fill="none" stroke="rgba(196,181,155,0.5490196078431373)" stroke-width="0.8" stroke-linecap="round" stroke-linejoin="round"/><path d="M295 474 L295 507 " fill="none" stroke="rgba(196,181,155,0.5490196078431373)" stroke-width="0.8" stroke-linecap="round" stroke-linejoin="round"/><rect x="124" y="218" width="42" height="84" rx="4" fill="rgba(152,222,175,1)" stroke="none" stroke-width="0.8" stroke-linecap="round" stroke-linejoin="round"/><rect x="124" y="168" width="42" height="84" rx="4" fill="rgba(152,222,175,1)" stroke="none" stroke-width="0.8" stroke-linecap="round" stroke-linejoin="round"/><rect x="124" y="268" width="42" height="84" rx="4" fill="rgba(152,222,175,1)" stroke="none" stroke-width="0.8" stroke-linecap="round" stroke-linejoin="round"/><rect x="124" y="318" width="42" height="84" rx="4" fill="rgba(152,222,175,1)" stroke="none" stroke-width="0.8" stroke-linecap="round" stroke-linejoin="round"/><rect x="24" y="418" width="42" height="84" rx="4" fill="rgba(152,222,175,1)" stroke="none" stroke-width="0.8" stroke-linecap="round" stroke-linejoin="round"/><rect x="24" y="468" width="42" height="84" rx="4" fill="rgba(152,222,175,1)" stroke="none" stroke-width="0.8" stroke-linecap="round" stroke-linejoin="round"/><rect x="124" y="418" width="42" height="84" rx="4" fill="rgba(152,222,175,1)" stroke="none" stroke-width="0.8" stroke-linecap="round" stroke-linejoin="round"/><rect x="124" y="118" width="42" height="84" rx="4" fill="rgba(152,222,175,1)" stroke="none" stroke-width="0.8" stroke-linecap="round" stroke-linejoin="round"/><rect x="224" y="218" width="42" height="84" rx="4" fill="rgba(152,222,175,1)" stroke="none" stroke-width="0.8" stroke-linecap="round" stroke-linejoin="round"/><rect x="224" y="168" width="42" height="84" rx="4" fill="rgba(152,222,175,1)" stroke="none" stroke-width="0.8" stroke-linecap="round" stroke-linejoin="round"/><rect x="224" y="268" width="42" height="84" rx="4" fill="rgba(152,222,175,1)" stroke="none" stroke-width="0.8" stroke-linecap="round" stroke-linejoin="round"/><rect x="124" y="368" width="42" height="84" rx="4" fill="rgba(152,222,175,1)" stroke="none" stroke-width="0.8" stroke-linecap="round" stroke-linejoin="round"/><rect x="224" y="418" width="42" height="84" rx="4" fill="rgba(152,222,175,1)" stroke="none" stroke-width="0.8" stroke-linecap="round" stroke-linejoin="round"/><rect x="224" y="368" width="42" height="84" rx="4" fill="rgba(152,222,175,1)" stroke="none" stroke-width="0.8" stroke-linecap="round" stroke-linejoin="round"/><rect x="224" y="468" width="42" height="84" rx="4" fill="rgba(152,222,175,1)" stroke="none" stroke-width="0.8" stroke-linecap="round" stroke-linejoin="round"/><rect x="324" y="168" width="42" height="84" rx="4" fill="rgba(152,222,175,1)" stroke="none" stroke-width="0.8" stroke-linecap="round" stroke-linejoin="round"/><rect x="224" y="318" width="42" height="84" rx="4" fill="rgba(152,222,175,1)" stroke="none" stroke-width="0.8" stroke-linecap="round" stroke-linejoin="round"/><rect x="324" y="118" width="42" height="84" rx="4" fill="rgba(152,222,175,1)" stroke="none" stroke-width="0.8" stroke-linecap="round" stroke-linejoin="round"/><rect x="124" y="218" width="42" height="34" rx="4" fill="rgba(152,222,175,1)" stroke="none" stroke-width="0.8" stroke-linecap="round" stroke-linejoin="round"/><rect x="124" y="268" width="42" height="34" rx="4" fill="rgba(152,222,175,1)" stroke="none" stroke-width="0.8" stroke-linecap="round" stroke-linejoin="round"/><rect x="124" y="318" width="42" height="34" rx="4" fill="rgba(152,222,175,1)" stroke="none" stroke-width="0.8" stroke-linecap="round" stroke-linejoin="round"/><rect x="24" y="418" width="42" height="34" rx="4" fill="rgba(152,222,175,1)" stroke="none" stroke-width="0.8" stroke-linecap="round" stroke-linejoin="round"/><rect x="24" y="468" width="42" height="34" rx="4" fill="rgba(152,222,175,1)" stroke="none" stroke-width="0.8" stroke-linecap="round" stroke-linejoin="round"/><rect x="24" y="518" width="42" height="34" rx="4" fill="rgba(152,222,175,1)" stroke="none" stroke-width="0.8" stroke-linecap="round" stroke-linejoin="round"/><rect x="124" y="468" width="42" height="34" rx="4" fill="rgba(152,222,175,1)" stroke="none" stroke-width="0.8" stroke-linecap="round" stroke-linejoin="round"/><rect x="124" y="118" width="42" height="34" rx="4" fill="rgba(152,222,175,1)" stroke="none" stroke-width="0.8" stroke-linecap="round" stroke-linejoin="round"/><rect x="124" y="168" width="42" height="34" rx="4" fill="rgba(152,222,175,1)" stroke="none" stroke-width="0.8" stroke-linecap="round" stroke-linejoin="round"/><rect x="224" y="218" width="42" height="34" rx="4" fill="rgba(152,222,175,1)" stroke="none" stroke-width="0.8" stroke-linecap="round" stroke-linejoin="round"/><rect x="224" y="268" width="42" height="34" rx="4" fill="rgba(152,222,175,1)" stroke="none" stroke-width="0.8" stroke-linecap="round" stroke-linejoin="round"/><rect x="124" y="368" width="42" height="34" rx="4" fill="rgba(152,222,175,1)" stroke="none" stroke-width="0.8" stroke-linecap="round" stroke-linejoin="round"/><rect x="124" y="418" width="42" height="34" rx="4" fill="rgba(152,222,175,1)" stroke="none" stroke-width="0.8" stroke-linecap="round" stroke-linejoin="round"/><rect x="224" y="418" width="42" height="34" rx="4" fill="rgba(152,222,175,1)" stroke="none" stroke-width="0.8" stroke-linecap="round" stroke-linejoin="round"/><rect x="224" y="468" width="42" height="34" rx="4" fill="rgba(152,222,175,1)" stroke="none" stroke-width="0.8" stroke-linecap="round" stroke-linejoin="round"/><rect x="224" y="168" width="42" height="34" rx="4" fill="rgba(152,222,175,1)" stroke="none" stroke-width="0.8" stroke-linecap="round" stroke-linejoin="round"/><rect x="324" y="218" width="42" height="34" rx="4" fill="rgba(152,222,175,1)" stroke="none" stroke-width="0.8" stroke-linecap="round" stroke-linejoin="round"/><rect x="224" y="318" width="42" height="34" rx="4" fill="rgba(152,222,175,1)" stroke="none" stroke-width="0.8" stroke-linecap="round" stroke-linejoin="round"/><rect x="224" y="368" width="42" height="34" rx="4" fill="rgba(152,222,175,1)" stroke="none" stroke-width="0.8" stroke-linecap="round" stroke-linejoin="round"/><rect x="224" y="518" width="42" height="34" rx="4" fill="rgba(152,222,175,1)" stroke="none" stroke-width="0.8" stroke-linecap="round" stroke-linejoin="round"/><rect x="324" y="168" width="42" height="34" rx="4" fill="rgba(152,222,175,1)" stroke="none" stroke-width="0.8" stroke-linecap="round" stroke-linejoin="round"/><rect x="324" y="118" width="42" height="34" rx="4" fill="rgba(152,222,175,1)" stroke="none" stroke-width="0.8" stroke-linecap="round" stroke-linejoin="round"/><rect x="126" y="220" width="38" height="30" rx="2" fill="rgba(236,248,223,1)" stroke="none" stroke-width="0.8" stroke-linecap="round" stroke-linejoin="round"/><rect x="126" y="220" width="38" height="30" rx="2" fill="none" stroke="rgba(92,171,113,0.49019607843137253)" stroke-width="0.8" stroke-linecap="round" stroke-linejoin="round"/><rect x="126" y="270" width="38" height="30" rx="2" fill="rgba(236,248,223,1)" stroke="none" stroke-width="0.8" stroke-linecap="round" stroke-linejoin="round"/><rect x="126" y="270" width="38" height="30" rx="2" fill="none" stroke="rgba(92,171,113,0.49019607843137253)" stroke-width="0.8" stroke-linecap="round" stroke-linejoin="round"/><rect x="126" y="320" width="38" height="30" rx="2" fill="rgba(236,248,223,1)" stroke="none" stroke-width="0.8" stroke-linecap="round" stroke-linejoin="round"/><rect x="126" y="320" width="38" height="30" rx="2" fill="none" stroke="rgba(92,171,113,0.49019607843137253)" stroke-width="0.8" stroke-linecap="round" stroke-linejoin="round"/><rect x="26" y="420" width="38" height="30" rx="2" fill="rgba(236,248,223,1)" stroke="none" stroke-width="0.8" stroke-linecap="round" stroke-linejoin="round"/><rect x="26" y="420" width="38" height="30" rx="2" fill="none" stroke="rgba(92,171,113,0.49019607843137253)" stroke-width="0.8" stroke-linecap="round" stroke-linejoin="round"/><rect x="26" y="470" width="38" height="30" rx="2" fill="rgba(236,248,223,1)" stroke="none" stroke-width="0.8" stroke-linecap="round" stroke-linejoin="round"/><rect x="26" y="470" width="38" height="30" rx="2" fill="none" stroke="rgba(92,171,113,0.49019607843137253)" stroke-width="0.8" stroke-linecap="round" stroke-linejoin="round"/><rect x="26" y="520" width="38" height="30" rx="2" fill="rgba(236,248,223,1)" stroke="none" stroke-width="0.8" stroke-linecap="round" stroke-linejoin="round"/><rect x="26" y="520" width="38" height="30" rx="2" fill="none" stroke="rgba(92,171,113,0.49019607843137253)" stroke-width="0.8" stroke-linecap="round" stroke-linejoin="round"/><rect x="126" y="470" width="38" height="30" rx="2" fill="rgba(236,248,223,1)" stroke="none" stroke-width="0.8" stroke-linecap="round" stroke-linejoin="round"/><rect x="126" y="470" width="38" height="30" rx="2" fill="none" stroke="rgba(92,171,113,0.49019607843137253)" stroke-width="0.8" stroke-linecap="round" stroke-linejoin="round"/><rect x="126" y="120" width="38" height="30" rx="2" fill="rgba(236,248,223,1)" stroke="none" stroke-width="0.8" stroke-linecap="round" stroke-linejoin="round"/><rect x="126" y="120" width="38" height="30" rx="2" fill="none" stroke="rgba(92,171,113,0.49019607843137253)" stroke-width="0.8" stroke-linecap="round" stroke-linejoin="round"/><rect x="126" y="170" width="38" height="30" rx="2" fill="rgba(236,248,223,1)" stroke="none" stroke-width="0.8" stroke-linecap="round" stroke-linejoin="round"/><rect x="126" y="170" width="38" height="30" rx="2" fill="none" stroke="rgba(92,171,113,0.49019607843137253)" stroke-width="0.8" stroke-linecap="round" stroke-linejoin="round"/><rect x="226" y="220" width="38" height="30" rx="2" fill="rgba(236,248,223,1)" stroke="none" stroke-width="0.8" stroke-linecap="round" stroke-linejoin="round"/><rect x="226" y="220" width="38" height="30" rx="2" fill="none" stroke="rgba(92,171,113,0.49019607843137253)" stroke-width="0.8" stroke-linecap="round" stroke-linejoin="round"/><rect x="226" y="270" width="38" height="30" rx="2" fill="rgba(236,248,223,1)" stroke="none" stroke-width="0.8" stroke-linecap="round" stroke-linejoin="round"/><rect x="226" y="270" width="38" height="30" rx="2" fill="none" stroke="rgba(92,171,113,0.49019607843137253)" stroke-width="0.8" stroke-linecap="round" stroke-linejoin="round"/><rect x="126" y="370" width="38" height="30" rx="2" fill="rgba(236,248,223,1)" stroke="none" stroke-width="0.8" stroke-linecap="round" stroke-linejoin="round"/><rect x="126" y="370" width="38" height="30" rx="2" fill="none" stroke="rgba(92,171,113,0.49019607843137253)" stroke-width="0.8" stroke-linecap="round" stroke-linejoin="round"/><rect x="126" y="420" width="38" height="30" rx="2" fill="rgba(236,248,223,1)" stroke="none" stroke-width="0.8" stroke-linecap="round" stroke-linejoin="round"/><rect x="126" y="420" width="38" height="30" rx="2" fill="none" stroke="rgba(92,171,113,0.49019607843137253)" stroke-width="0.8" stroke-linecap="round" stroke-linejoin="round"/><rect x="226" y="420" width="38" height="30" rx="2" fill="rgba(236,248,223,1)" stroke="none" stroke-width="0.8" stroke-linecap="round" stroke-linejoin="round"/><rect x="226" y="420" width="38" height="30" rx="2" fill="none" stroke="rgba(92,171,113,0.49019607843137253)" stroke-width="0.8" stroke-linecap="round" stroke-linejoin="round"/><rect x="226" y="470" width="38" height="30" rx="2" fill="rgba(236,248,223,1)" stroke="none" stroke-width="0.8" stroke-linecap="round" stroke-linejoin="round"/><rect x="226" y="470" width="38" height="30" rx="2" fill="none" stroke="rgba(92,171,113,0.49019607843137253)" stroke-width="0.8" stroke-linecap="round" stroke-linejoin="round"/><rect x="226" y="170" width="38" height="30" rx="2" fill="rgba(236,248,223,1)" stroke="none" stroke-width="0.8" stroke-linecap="round" stroke-linejoin="round"/><rect x="226" y="170" width="38" height="30" rx="2" fill="none" stroke="rgba(92,171,113,0.49019607843137253)" stroke-width="0.8" stroke-linecap="round" stroke-linejoin="round"/><rect x="326" y="220" width="38" height="30" rx="2" fill="rgba(236,248,223,1)" stroke="none" stroke-width="0.8" stroke-linecap="round" stroke-linejoin="round"/><rect x="326" y="220" width="38" height="30" rx="2" fill="none" stroke="rgba(92,171,113,0.49019607843137253)" stroke-width="0.8" stroke-linecap="round" stroke-linejoin="round"/><rect x="226" y="320" width="38" height="30" rx="2" fill="rgba(236,248,223,1)" stroke="none" stroke-width="0.8" stroke-linecap="round" stroke-linejoin="round"/><rect x="226" y="320" width="38" height="30" rx="2" fill="none" stroke="rgba(92,171,113,0.49019607843137253)" stroke-width="0.8" stroke-linecap="round" stroke-linejoin="round"/><rect x="226" y="370" width="38" height="30" rx="2" fill="rgba(236,248,223,1)" stroke="none" stroke-width="0.8" stroke-linecap="round" stroke-linejoin="round"/><rect x="226" y="370" width="38" height="30" rx="2" fill="none" stroke="rgba(92,171,113,0.49019607843137253)" stroke-width="0.8" stroke-linecap="round" stroke-linejoin="round"/><rect x="226" y="520" width="38" height="30" rx="2" fill="rgba(236,248,223,1)" stroke="none" stroke-width="0.8" stroke-linecap="round" stroke-linejoin="round"/><rect x="226" y="520" width="38" height="30" rx="2" fill="none" stroke="rgba(92,171,113,0.49019607843137253)" stroke-width="0.8" stroke-linecap="round" stroke-linejoin="round"/><rect x="326" y="170" width="38" height="30" rx="2" fill="rgba(236,248,223,1)" stroke="none" stroke-width="0.8" stroke-linecap="round" stroke-linejoin="round"/><rect x="326" y="170" width="38" height="30" rx="2" fill="none" stroke="rgba(92,171,113,0.49019607843137253)" stroke-width="0.8" stroke-linecap="round" stroke-linejoin="round"/><rect x="326" y="120" width="38" height="30" rx="2" fill="rgba(236,248,223,1)" stroke="none" stroke-width="0.8" stroke-linecap="round" stroke-linejoin="round"/><rect x="326" y="120" width="38" height="30" rx="2" fill="none" stroke="rgba(92,171,113,0.49019607843137253)" stroke-width="0.8" stroke-linecap="round" stroke-linejoin="round"/><rect x="15" y="155" width="50" height="12" rx="2" fill="rgba(199,190,163,1)" stroke="none" stroke-width="0.8" stroke-linecap="round" stroke-linejoin="round"/><rect x="18" y="156" width="44" height="9" rx="1" fill="rgba(240,223,189,1)" stroke="none" stroke-width="0.8" stroke-linecap="round" stroke-linejoin="round"/><path d="M33 156 L33 165 " fill="none" stroke="rgba(199,190,163,0.5882352941176471)" stroke-width="0.7" stroke-linecap="round" stroke-linejoin="round"/><path d="M48 156 L48 165 " fill="none" stroke="rgba(199,190,163,0.5882352941176471)" stroke-width="0.7" stroke-linecap="round" stroke-linejoin="round"/><rect x="325" y="555" width="50" height="12" rx="2" fill="rgba(199,190,163,1)" stroke="none" stroke-width="0.7" stroke-linecap="round" stroke-linejoin="round"/><rect x="328" y="556" width="44" height="9" rx="1" fill="rgba(240,223,189,1)" stroke="none" stroke-width="0.7" stroke-linecap="round" stroke-linejoin="round"/><path d="M343 556 L343 565 " fill="none" stroke="rgba(199,190,163,0.5882352941176471)" stroke-width="0.7" stroke-linecap="round" stroke-linejoin="round"/><path d="M358 556 L358 565 " fill="none" stroke="rgba(199,190,163,0.5882352941176471)" stroke-width="0.7" stroke-linecap="round" stroke-linejoin="round"/><path d="M66.9 140 L74.9 135 L66.9 130 " fill="none" stroke="rgba(155,121,84,0.7058823529411765)" stroke-width="3" stroke-linecap="round" stroke-linejoin="round"/></svg>