<svg xmlns="http://www.w3.org/2000/svg" width="780" height="1388" viewBox="0 0 390 694"><path d="M332 230 L378 230 " fill="none" stroke="rgba(157,171,198,0.37254901960784315)" stroke-width="0.7" stroke-linecap="butt" stroke-linejoin="miter"/><path d="M332 330 L378 330 " fill="none" stroke="rgba(157,171,198,0.37254901960784315)" stroke-width="0.7" stroke-linecap="butt" stroke-linejoin="miter"/><path d="M12 530 L378 530 " fill="none" stroke="rgba(157,171,198,0.37254901960784315)" stroke-width="0.7" stroke-linecap="butt" stroke-linejoin="miter"/><path d="M90 86 L90 102 " fill="none" stroke="rgba(157,171,198,0.37254901960784315)" stroke-width="0.7" stroke-linecap="butt" stroke-linejoin="miter"/><path d="M90 510 L90 598 " fill="none" stroke="rgba(157,171,198,0.37254901960784315)" stroke-width="0.7" stroke-linecap="butt" stroke-linejoin="miter"/><path d="M165 86 L165 102 " fill="none" stroke="rgba(157,171,198,0.37254901960784315)" stroke-width="0.7" stroke-linecap="butt" stroke-linejoin="miter"/><path d="M165 510 L165 598 " fill="none" stroke="rgba(157,171,198,0.37254901960784315)" stroke-width="0.7" stroke-linecap="butt" stroke-linejoin="miter"/><path d="M240 86 L240 102 " fill="none" stroke="rgba(157,171,198,0.37254901960784315)" stroke-width="0.7" stroke-linecap="butt" stroke-linejoin="miter"/><path d="M240 510 L240 598 " fill="none" stroke="rgba(157,171,198,0.37254901960784315)" stroke-width="0.7" stroke-linecap="butt" stroke-linejoin="miter"/><path d="M315 358 L315 390 " fill="none" stroke="rgba(157,171,198,0.37254901960784315)" stroke-width="0.7" stroke-linecap="butt" stroke-linejoin="miter"/><path d="M315 478 L315 598 " fill="none" stroke="rgba(157,171,198,0.37254901960784315)" stroke-width="0.7" stroke-linecap="butt" stroke-linejoin="miter"/><path d="M350 135 L53 135 Q45 135 45 143 L45 227 Q45 235 53 235 L237 235 Q245 235 245 243 L245 327 Q245 335 237 335 L103 335 Q95 335 95 343 L95 427 Q95 435 103 435 L350 435 " fill="none" stroke="rgba(160,167,189,1)" stroke-width="52" stroke-linecap="round" stroke-linejoin="round"/><path d="M350 135 L53 135 Q45 135 45 143 L45 227 Q45 235 53 235 L237 235 Q245 235 245 243 L245 327 Q245 335 237 335 L103 335 Q95 335 95 343 L95 427 Q95 435 103 435 L350 435 " fill="none" stroke="rgba(226,223,223,1)" stroke-width="49" stroke-linecap="round" stroke-linejoin="round"/><path d="M315 114 L315 156 " fill="none" stroke="rgba(196,181,155,0.5490196078431373)" stroke-width="0.8" stroke-linecap="round" stroke-linejoin="round"/><path d="M315 135 L277 135 " fill="none" stroke="rgba(196,181,155,0.5490196078431373)" stroke-width="0.8" stroke-linecap="round" stroke-linejoin="round"/><path d="M277 114 L277 156 " fill="none" stroke="rgba(196,181,155,0.5490196078431373)" stroke-width="0.8" stroke-linecap="round" stroke-linejoin="round"/><path d="M277 135 L239 135 " fill="none" stroke="rgba(196,181,155,0.5490196078431373)" stroke-width="0.8" stroke-linecap="round" stroke-linejoin="round"/><path d="M239 114 L239 156 " fill="none" stroke="rgba(196,181,155,0.5490196078431373)" stroke-width="0.8" stroke-linecap="round" stroke-linejoin="round"/><path d="M239 135 L201 135 " fill="none" stroke="rgba(196,181,155,0.5490196078431373)" stroke-width="0.8" stroke-linecap="round" stroke-linejoin="round"/><path d="M201 114 L201 156 " fill="none" stroke="rgba(196,181,155,0.5490196078431373)" stroke-width="0.8" stroke-linecap="round" stroke-linejoin="round"/><path d="M201 135 L163 135 " fill="none" stroke="rgba(196,181,155,0.5490196078431373)" stroke-width="0.8" stroke-linecap="round" stroke-linejoin="round"/><path d="M163 114 L163 156 " fill="none" stroke="rgba(196,181,155,0.5490196078431373)" stroke-width="0.8" stroke-linecap="round" stroke-linejoin="round"/><path d="M163 135 L125 135 " fill="none" stroke="rgba(196,181,155,0.5490196078431373)" stroke-width="0.8" stroke-linecap="round" stroke-linejoin="round"/><path d="M125 114 L125 156 " fill="none" stroke="rgba(196,181,155,0.5490196078431373)" stroke-width="0.8" stroke-linecap="round" stroke-linejoin="round"/><path d="M125 135 L87 135 " fill="none" stroke="rgba(196,181,155,0.5490196078431373)" stroke-width="0.8" stroke-linecap="round" stroke-linejoin="round"/><path d="M87 114 L87 156 " fill="none" stroke="rgba(196,181,155,0.5490196078431373)" stroke-width="0.8" stroke-linecap="round" stroke-linejoin="round"/><path d="M87 135 L73 135 " fill="none" stroke="rgba(196,181,155,0.5490196078431373)" stroke-width="0.8" stroke-linecap="round" stroke-linejoin="round"/><path d="M24 170 L66 170 " fill="none" stroke="rgba(196,181,155,0.5490196078431373)" stroke-width="0.8" stroke-linecap="round" stroke-linejoin="round"/><path d="M45 170 L45 207 " fill="none" stroke="rgba(196,181,155,0.5490196078431373)" stroke-width="0.8" stroke-linecap="round" stroke-linejoin="round"/><path d="M80 256 L80 214 " fill="none" stroke="rgba(196,181,155,0.5490196078431373)" stroke-width="0.8" stroke-linecap="round" stroke-linejoin="round"/><path d="M80 235 L118 235 " fill="none" stroke="rgba(196,181,155,0.5490196078431373)" stroke-width="0.8" stroke-linecap="round" stroke-linejoin="round"/><path d="M118 256 L118 214 " fill="none" stroke="rgba(196,181,155,0.5490196078431373)" stroke-width="0.8" stroke-linecap="round" stroke-linejoin="round"/><path d="M118 235 L156 235 " fill="none" stroke="rgba(196,181,155,0.5490196078431373)" stroke-width="0.8" stroke-linecap="round" stroke-linejoin="round"/><path d="M156 256 L156 214 " fill="none" stroke="rgba(196,181,155,0.5490196078431373)" stroke-width="0.8" stroke-linecap="round" stroke-linejoin="round"/><path d="M156 235 L194 235 " fill="none" stroke="rgba(196,181,155,0.5490196078431373)" stroke-width="0.8" stroke-linecap="round" stroke-linejoin="round"/><path d="M194 256 L194 214 " fill="none" stroke="rgba(196,181,155,0.5490196078431373)" stroke-width="0.8" stroke-linecap="round" stroke-linejoin="round"/><path d="M194 235 L217 235 " fill="none" stroke="rgba(196,181,155,0.5490196078431373)" stroke-width="0.8" stroke-linecap="round" stroke-linejoin="round"/><path d="M224 270 L266 270 " fill="none" stroke="rgba(196,181,155,0.5490196078431373)" stroke-width="0.8" stroke-linecap="round" stroke-linejoin="round"/><path d="M245 270 L245 307 " fill="none" stroke="rgba(196,181,155,0.5490196078431373)" stroke-width="0.8" stroke-linecap="round" stroke-linejoin="round"/><path d="M210 314 L210 356 " fill="none" stroke="rgba(196,181,155,0.5490196078431373)" stroke-width="0.8" stroke-linecap="round" stroke-linejoin="round"/><path d="M210 335 L172 335 " fill="none" stroke="rgba(196,181,155,0.5490196078431373)" stroke-width="0.8" stroke-linecap="round" stroke-linejoin="round"/><path d="M172 314 L172 356 " fill="none" stroke="rgba(196,181,155,0.5490196078431373)" stroke-width="0.8" stroke-linecap="round" stroke-linejoin="round"/><path d="M172 335 L134 335 " fill="none" stroke="rgba(196,181,155,0.5490196078431373)" stroke-width="0.8" stroke-linecap="round" stroke-linejoin="round"/><path d="M134 314 L134 356 " fill="none" stroke="rgba(196,181,155,0.5490196078431373)" stroke-width="0.8" stroke-linecap="round" stroke-linejoin="round"/><path d="M134 335 L123 335 " fill="none" stroke="rgba(196,181,155,0.5490196078431373)" stroke-width="0.8" stroke-linecap="round" stroke-linejoin="round"/><path d="M74 370 L116 370 " fill="none" stroke="rgba(196,181,155,0.5490196078431373)" stroke-width="0.8" stroke-linecap="round" stroke-linejoin="round"/><path d="M95 370 L95 407 " fill="none" stroke="rgba(196,181,155,0.5490196078431373)" stroke-width="0.8" stroke-linecap="round" stroke-linejoin="round"/><path d="M130 456 L130 414 " fill="none" stroke="rgba(196,181,155,0.5490196078431373)" stroke-width="0.8" stroke-linecap="round" stroke-linejoin="round"/><path d="M130 435 L168 435 " fill="none" stroke="rgba(196,181,155,0.5490196078431373)" stroke-width="0.8" stroke-linecap="round" stroke-linejoin="round"/><path d="M168 456 L168 414 " fill="none" stroke="rgba(196,181,155,0.5490196078431373)" stroke-width="0.8" stroke-linecap="round" stroke-linejoin="round"/><path d="M168 435 L206 435 " fill="none" stroke="rgba(196,181,155,0.5490196078431373)" stroke-width="0.8" stroke-linecap="round" stroke-linejoin="round"/><path d="M206 456 L206 414 " fill="none" stroke="rgba(196,181,155,0.5490196078431373)" stroke-width="0.8" stroke-linecap="round" stroke-linejoin="round"/><path d="M206 435 L244 435 " fill="none" stroke="rgba(196,181,155,0.5490196078431373)" stroke-width="0.8" stroke-linecap="round" stroke-linejoin="round"/><path d="M244 456 L244 414 " fill="none" stroke="rgba(196,181,155,0.5490196078431373)" stroke-width="0.8" stroke-linecap="round" stroke-linejoin="round"/><path d="M244 435 L282 435 " fill="none" stroke="rgba(196,181,155,0.5490196078431373)" stroke-width="0.8" stroke-linecap="round" stroke-linejoin="round"/><path d="M282 456 L282 414 " fill="none" stroke="rgba(196,181,155,0.5490196078431373)" stroke-width="0.8" stroke-linecap="round" stroke-linejoin="round"/><path d="M282 435 L320 435 " fill="none" stroke="rgba(196,181,155,0.5490196078431373)" stroke-width="0.8" stroke-linecap="round" stroke-linejoin="round"/><path d="M320 456 L320 414 " fill="none" stroke="rgba(196,181,155,0.5490196078431373)" stroke-width="0.8" stroke-linecap="round" stroke-linejoin="round"/><path d="M320 435 L322 435 " fill="none" stroke="rgba(196,181,155,0.5490196078431373)" stroke-width="0.8" stroke-linecap="round" stroke-linejoin="round"/><rect x="74" y="168" width="92" height="34" rx="4" fill="rgba(185,199,199,1)" stroke="none" stroke-width="0.8" stroke-linecap="round" stroke-linejoin="round"/><rect x="124" y="168" width="92" height="34" rx="4" fill="rgba(185,199,199,1)" stroke="none" stroke-width="0.8" stroke-linecap="round" stroke-linejoin="round"/><rect x="174" y="168" width="92" height="34" rx="4" fill="rgba(185,199,199,1)" stroke="none" stroke-width="0.8" stroke-linecap="round" stroke-linejoin="round"/><rect x="274" y="218" width="42" height="84" rx="4" fill="rgba(185,199,199,1)" stroke="none" stroke-width="0.8" stroke-linecap="round" stroke-linejoin="round"/><rect x="274" y="268" width="42" height="84" rx="4" fill="rgba(185,199,199,1)" stroke="none" stroke-width="0.8" stroke-linecap="round" stroke-linejoin="round"/><rect x="24" y="268" width="92" height="34" rx="4" fill="rgba(185,199,199,1)" stroke="none" stroke-width="0.8" stroke-linecap="round" stroke-linejoin="round"/><rect x="24" y="268" width="42" height="84" rx="4" fill="rgba(185,199,199,1)" stroke="none" stroke-width="0.8" stroke-linecap="round" stroke-linejoin="round"/><rect x="74" y="268" width="92" height="34" rx="4" fill="rgba(185,199,199,1)" stroke="none" stroke-width="0.8" stroke-linecap="round" stroke-linejoin="round"/><rect x="124" y="268" width="92" height="34" rx="4" fill="rgba(185,199,199,1)" stroke="none" stroke-width="0.8" stroke-linecap="round" stroke-linejoin="round"/><rect x="24" y="318" width="42" height="84" rx="4" fill="rgba(185,199,199,1)" stroke="none" stroke-width="0.8" stroke-linecap="round" stroke-linejoin="round"/><rect x="124" y="368" width="92" height="34" rx="4" fill="rgba(185,199,199,1)" stroke="none" stroke-width="0.8" stroke-linecap="round" stroke-linejoin="round"/><rect x="174" y="368" width="92" height="34" rx="4" fill="rgba(185,199,199,1)" stroke="none" stroke-width="0.8" stroke-linecap="round" stroke-linejoin="round"/><rect x="24" y="368" width="42" height="84" rx="4" fill="rgba(185,199,199,1)" stroke="none" stroke-width="0.8" stroke-linecap="round" stroke-linejoin="round"/><rect x="174" y="468" width="92" height="34" rx="4" fill="rgba(185,199,199,1)" stroke="none" stroke-width="0.8" stroke-linecap="round" stroke-linejoin="round"/><rect x="124" y="468" width="92" height="34" rx="4" fill="rgba(185,199,199,1)" stroke="none" stroke-width="0.8" stroke-linecap="round" stroke-linejoin="round"/><rect x="74" y="468" width="92" height="34" rx="4" fill="rgba(185,199,199,1)" stroke="none" stroke-width="0.8" stroke-linecap="round" stroke-linejoin="round"/><rect x="74" y="168" width="42" height="34" rx="4" fill="rgba(185,199,199,1)" stroke="none" stroke-width="0.8" stroke-linecap="round" stroke-linejoin="round"/><rect x="124" y="168" width="42" height="34" rx="4" fill="rgba(185,199,199,1)" stroke="none" stroke-width="0.8" stroke-linecap="round" stroke-linejoin="round"/><rect x="174" y="168" width="42" height="34" rx="4" fill="rgba(185,199,199,1)" stroke="none" stroke-width="0.8" stroke-linecap="round" stroke-linejoin="round"/><rect x="224" y="168" width="42" height="34" rx="4" fill="rgba(185,199,199,1)" stroke="none" stroke-width="0.8" stroke-linecap="round" stroke-linejoin="round"/><rect x="274" y="218" width="42" height="34" rx="4" fill="rgba(185,199,199,1)" stroke="none" stroke-width="0.8" stroke-linecap="round" stroke-linejoin="round"/><rect x="274" y="268" width="42" height="34" rx="4" fill="rgba(185,199,199,1)" stroke="none" stroke-width="0.8" stroke-linecap="round" stroke-linejoin="round"/><rect x="24" y="268" width="42" height="34" rx="4" fill="rgba(185,199,199,1)" stroke="none" stroke-width="0.8" stroke-linecap="round" stroke-linejoin="round"/><rect x="74" y="268" width="42" height="34" rx="4" fill="rgba(185,199,199,1)" stroke="none" stroke-width="0.8" stroke-linecap="round" stroke-linejoin="round"/><rect x="124" y="268" width="42" height="34" rx="4" fill="rgba(185,199,199,1)" stroke="none" stroke-width="0.8" stroke-linecap="round" stroke-linejoin="round"/><rect x="174" y="268" width="42" height="34" rx="4" fill="rgba(185,199,199,1)" stroke="none" stroke-width="0.8" stroke-linecap="round" stroke-linejoin="round"/><rect x="274" y="318" width="42" height="34" rx="4" fill="rgba(185,199,199,1)" stroke="none" stroke-width="0.8" stroke-linecap="round" stroke-linejoin="round"/><rect x="24" y="318" width="42" height="34" rx="4" fill="rgba(185,199,199,1)" stroke="none" stroke-width="0.8" stroke-linecap="round" stroke-linejoin="round"/><rect x="124" y="368" width="42" height="34" rx="4" fill="rgba(185,199,199,1)" stroke="none" stroke-width="0.8" stroke-linecap="round" stroke-linejoin="round"/><rect x="174" y="368" width="42" height="34" rx="4" fill="rgba(185,199,199,1)" stroke="none" stroke-width="0.8" stroke-linecap="round" stroke-linejoin="round"/><rect x="224" y="368" width="42" height="34" rx="4" fill="rgba(185,199,199,1)" stroke="none" stroke-width="0.8" stroke-linecap="round" stroke-linejoin="round"/><rect x="24" y="368" width="42" height="34" rx="4" fill="rgba(185,199,199,1)" stroke="none" stroke-width="0.8" stroke-linecap="round" stroke-linejoin="round"/><rect x="224" y="468" width="42" height="34" rx="4" fill="rgba(185,199,199,1)" stroke="none" stroke-width="0.8" stroke-linecap="round" stroke-linejoin="round"/><rect x="24" y="418" width="42" height="34" rx="4" fill="rgba(185,199,199,1)" stroke="none" stroke-width="0.8" stroke-linecap="round" stroke-linejoin="round"/><rect x="174" y="468" width="42" height="34" rx="4" fill="rgba(185,199,199,1)" stroke="none" stroke-width="0.8" stroke-linecap="round" stroke-linejoin="round"/><rect x="124" y="468" width="42" height="34" rx="4" fill="rgba(185,199,199,1)" stroke="none" stroke-width="0.8" stroke-linecap="round" stroke-linejoin="round"/><rect x="74" y="468" width="42" height="34" rx="4" fill="rgba(185,199,199,1)" stroke="none" stroke-width="0.8" stroke-linecap="round" stroke-linejoin="round"/><rect x="76" y="170" width="38" height="30" rx="2" fill="rgba(216,220,230,1)" stroke="none" stroke-width="0.8" stroke-linecap="round" stroke-linejoin="round"/><rect x="76" y="170" width="38" height="30" rx="2" fill="none" stroke="rgba(134,155,168,0.49019607843137253)" stroke-width="0.8" stroke-linecap="round" stroke-linejoin="round"/><rect x="126" y="170" width="38" height="30" rx="2" fill="rgba(216,220,230,1)" stroke="none" stroke-width="0.8" stroke-linecap="round" stroke-linejoin="round"/><rect x="126" y="170" width="38" height="30" rx="2" fill="none" stroke="rgba(134,155,168,0.49019607843137253)" stroke-width="0.8" stroke-linecap="round" stroke-linejoin="round"/><rect x="176" y="170" width="38" height="30" rx="2" fill="rgba(216,220,230,1)" stroke="none" stroke-width="0.8" stroke-linecap="round" stroke-linejoin="round"/><rect x="176" y="170" width="38" height="30" rx="2" fill="none" stroke="rgba(134,155,168,0.49019607843137253)" stroke-width="0.8" stroke-linecap="round" stroke-linejoin="round"/><rect x="226" y="170" width="38" height="30" rx="2" fill="rgba(216,220,230,1)" stroke="none" stroke-width="0.8" stroke-linecap="round" stroke-linejoin="round"/><rect x="226" y="170" width="38" height="30" rx="2" fill="none" stroke="rgba(134,155,168,0.49019607843137253)" stroke-width="0.8" stroke-linecap="round" stroke-linejoin="round"/><rect x="276" y="220" width="38" height="30" rx="2" fill="rgba(216,220,230,1)" stroke="none" stroke-width="0.8" stroke-linecap="round" stroke-linejoin="round"/><rect x="276" y="220" width="38" height="30" rx="2" fill="none" stroke="rgba(134,155,168,0.49019607843137253)" stroke-width="0.8" stroke-linecap="round" stroke-linejoin="round"/><rect x="276" y="270" width="38" height="30" rx="2" fill="rgba(216,220,230,1)" stroke="none" stroke-width="0.8" stroke-linecap="round" stroke-linejoin="round"/><rect x="276" y="270" width="38" height="30" rx="2" fill="none" stroke="rgba(134,155,168,0.49019607843137253)" stroke-width="0.8" stroke-linecap="round" stroke-linejoin="round"/><rect x="26" y="270" width="38" height="30" rx="2" fill="rgba(216,220,230,1)" stroke="none" stroke-width="0.8" stroke-linecap="round" stroke-linejoin="round"/><rect x="26" y="270" width="38" height="30" rx="2" fill="none" stroke="rgba(134,155,168,0.49019607843137253)" stroke-width="0.8" stroke-linecap="round" stroke-linejoin="round"/><rect x="76" y="270" width="38" height="30" rx="2" fill="rgba(216,220,230,1)" stroke="none" stroke-width="0.8" stroke-linecap="round" stroke-linejoin="round"/><rect x="76" y="270" width="38" height="30" rx="2" fill="none" stroke="rgba(134,155,168,0.49019607843137253)" stroke-width="0.8" stroke-linecap="round" stroke-linejoin="round"/><rect x="126" y="270" width="38" height="30" rx="2" fill="rgba(216,220,230,1)" stroke="none" stroke-width="0.8" stroke-linecap="round" stroke-linejoin="round"/><rect x="126" y="270" width="38" height="30" rx="2" fill="none" stroke="rgba(134,155,168,0.49019607843137253)" stroke-width="0.8" stroke-linecap="round" stroke-linejoin="round"/><rect x="176" y="270" width="38" height="30" rx="2" fill="rgba(216,220,230,1)" stroke="none" stroke-width="0.8" stroke-linecap="round" stroke-linejoin="round"/><rect x="176" y="270" width="38" height="30" rx="2" fill="none" stroke="rgba(134,155,168,0.49019607843137253)" stroke-width="0.8" stroke-linecap="round" stroke-linejoin="round"/><rect x="276" y="320" width="38" height="30" rx="2" fill="rgba(216,220,230,1)" stroke="none" stroke-width="0.8" stroke-linecap="round" stroke-linejoin="round"/><rect x="276" y="320" width="38" height="30" rx="2" fill="none" stroke="rgba(134,155,168,0.49019607843137253)" stroke-width="0.8" stroke-linecap="round" stroke-linejoin="round"/><rect x="26" y="320" width="38" height="30" rx="2" fill="rgba(216,220,230,1)" stroke="none" stroke-width="0.8" stroke-linecap="round" stroke-linejoin="round"/><rect x="26" y="320" width="38" height="30" rx="2" fill="none" stroke="rgba(134,155,168,0.49019607843137253)" stroke-width="0.8" stroke-linecap="round" stroke-linejoin="round"/><rect x="126" y="370" width="38" height="30" rx="2" fill="rgba(216,220,230,1)" stroke="none" stroke-width="0.8" stroke-linecap="round" stroke-linejoin="round"/><rect x="126" y="370" width="38" height="30" rx="2" fill="none" stroke="rgba(134,155,168,0.49019607843137253)" stroke-width="0.8" stroke-linecap="round" stroke-linejoin="round"/><rect x="176" y="370" width="38" height="30" rx="2" fill="rgba(216,220,230,1)" stroke="none" stroke-width="0.8" stroke-linecap="round" stroke-linejoin="round"/><rect x="176" y="370" width="38" height="30" rx="2" fill="none" stroke="rgba(134,155,168,0.49019607843137253)" stroke-width="0.8" stroke-linecap="round" stroke-linejoin="round"/><rect x="226" y="370" width="38" height="30" rx="2" fill="rgba(216,220,230,1)" stroke="none" stroke-width="0.8" stroke-linecap="round" stroke-linejoin="round"/><rect x="226" y="370" width="38" height="30" rx="2" fill="none" stroke="rgba(134,155,168,0.49019607843137253)" stroke-width="0.8" stroke-linecap="round" stroke-linejoin="round"/><rect x="26" y="370" width="38" height="30" rx="2" fill="rgba(216,220,230,1)" stroke="none" stroke-width="0.8" stroke-linecap="round" stroke-linejoin="round"/><rect x="26" y="370" width="38" height="30" rx="2" fill="none" stroke="rgba(134,155,168,0.49019607843137253)" stroke-width="0.8" stroke-linecap="round" stroke-linejoin="round"/><rect x="226" y="470" width="38" height="30" rx="2" fill="rgba(216,220,230,1)" stroke="none" stroke-width="0.8" stroke-linecap="round" stroke-linejoin="round"/><rect x="226" y="470" width="38" height="30" rx="2" fill="none" stroke="rgba(134,155,168,0.49019607843137253)" stroke-width="0.8" stroke-linecap="round" stroke-linejoin="round"/><rect x="26" y="420" width="38" height="30" rx="2" fill="rgba(216,220,230,1)" stroke="none" stroke-width="0.8" stroke-linecap="round" stroke-linejoin="round"/><rect x="26" y="420" width="38" height="30" rx="2" fill="none" stroke="rgba(134,155,168,0.49019607843137253)" stroke-width="0.8" stroke-linecap="round" stroke-linejoin="round"/><rect x="176" y="470" width="38" height="30" rx="2" fill="rgba(216,220,230,1)" stroke="none" stroke-width="0.8" stroke-linecap="round" stroke-linejoin="round"/><rect x="176" y="470" width="38" height="30" rx="2" fill="none" stroke="rgba(134,155,168,0.49019607843137253)" stroke-width="0.8" stroke-linecap="round" stroke-linejoin="round"/><rect x="126" y="470" width="38" height="30" rx="2" fill="rgba(216,220,230,1)" stroke="none" stroke-width="0.8" stroke-linecap="round" stroke-linejoin="round"/><rect x="126" y="470" width="38" height="30" rx="2" fill="none" stroke="rgba(134,155,168,0.49019607843137253)" stroke-width="0.8" stroke-linecap="round" stroke-linejoin="round"/><rect x="76" y="470" width="38" height="30" rx="2" fill="rgba(216,220,230,1)" stroke="none" stroke-width="0.8" stroke-linecap="round" stroke-linejoin="round"/><rect x="76" y="470" width="38" height="30" rx="2" fill="none" stroke="rgba(134,155,168,0.49019607843137253)" stroke-width="0.8" stroke-linecap="round" stroke-linejoin="round"/><rect x="325" y="155" width="50" height="12" rx="2" fill="rgba(199,190,163,1)" stroke="none" stroke-width="0.8" stroke-linecap="round" stroke-linejoin="round"/><rect x="328" y="156" width="44" height="9" rx="1" fill="rgba(240,223,189,1)" stroke="none" stroke-width="0.8" stroke-linecap="round" stroke-linejoin="round"/><path d="M343 156 L343 165 " fill="none" stroke="rgba(199,190,163,0.5882352941176471)" stroke-width="0.7" stroke-linecap="round" stroke-linejoin="round"/><path d="M358 156 L358 165 " fill="none" stroke="rgba(199,190,163,0.5882352941176471)" stroke-width="0.7" stroke-linecap="round" stroke-linejoin="round"/><rect x="325" y="455" width="50" height="12" rx="2" fill="rgba(199,190,163,1)" stroke="none" stroke-width="0.7" stroke-linecap="round" stroke-linejoin="round"/><rect x="328" y="456" width="44" height="9" rx="1" fill="rgba(240,223,189,1)" stroke="none" stroke-width="0.7" stroke-linecap="round" stroke-linejoin="round"/><path d="M343 456 L343 465 " fill="none" stroke="rgba(199,190,163,0.5882352941176471)" stroke-width="0.7" stroke-linecap="round" stroke-linejoin="round"/><path d="M358 456 L358 465 " fill="none" stroke="rgba(199,190,163,0.5882352941176471)" stroke-width="0.7" stroke-linecap="round" stroke-linejoin="round"/><path d="M312 130 L304 135 L312 140 " fill="none" stroke="rgba(155,121,84,0.7058823529411765)" stroke-width="3" stroke-linecap="round" stroke-linejoin="round"/></svg>